<svg width="65" height="8" viewBox="0 0 65 8" fill="none" xmlns="http://www.w3.org/2000/svg">
<path fill-rule="evenodd" clip-rule="evenodd" d="M6.75401 0L0 8H2.20354L5.08905 4.58858L5.76838 5.39763L3.56088 8H5.68511L6.82703 6.60219L7.97026 8H10L7.85957 5.44308L10 2.91288H7.87312L6.77185 4.21215L6.10078 3.39616L8.9777 0H6.75401Z" fill="#040000"/>
<path fill-rule="evenodd" clip-rule="evenodd" d="M19.4273 0L18.005 2.93322L16.5933 0H14.1464L16.353 3.88252L14 8H16.4572L18.005 4.91748L19.5634 8H22L19.6679 3.88252L21.8327 0H19.4273Z" fill="#040000"/>
<path fill-rule="evenodd" clip-rule="evenodd" d="M24 0V0.8H26.5532V8H27.4468V0.8H30V0H24Z" fill="#040000"/>
<path fill-rule="evenodd" clip-rule="evenodd" d="M32.5732 0.781552C31.2444 0.781552 30.8963 1.10422 30.8963 2.62501V5.40607C30.8963 6.95826 31.4131 7.14571 32.5732 7.15596H33.6382C34.798 7.14571 35.3144 6.95826 35.3144 5.40607V2.62501C35.3144 1.10422 34.9667 0.781552 33.6382 0.781552H32.5732ZM33.6382 0C35.61 0.0211588 36.2111 0.666832 36.2111 2.62501V5.40607C36.2111 7.24952 35.5364 7.93718 33.6382 7.93718H32.5732C30.6751 7.93718 30 7.24952 30 5.40607V2.62501C30 0.666832 30.6011 0.0211588 32.5732 0H33.6382Z" fill="#040000"/>
<path fill-rule="evenodd" clip-rule="evenodd" d="M40.7021 0.781552C39.3733 0.781552 39.0252 1.10422 39.0252 2.62501V5.40607C39.0252 6.95826 39.5417 7.14571 40.7021 7.15596H41.7671C42.9269 7.14571 43.4434 6.95826 43.4434 5.40607V2.62501C43.4434 1.10422 43.0956 0.781552 41.7671 0.781552H40.7021ZM41.7671 0C43.7389 0.0211588 44.3397 0.666832 44.3397 2.62501V5.40607C44.3397 7.24952 43.6653 7.93718 41.7671 7.93718H40.7021C38.8037 7.93718 38.1289 7.24952 38.1289 5.40607V2.62501C38.1289 0.666832 38.7297 0.0211588 40.7021 0H41.7671Z" fill="#040000"/>
<path fill-rule="evenodd" clip-rule="evenodd" d="M47.5119 7.09376H51.5401V7.87465H46.6152V0.062439H47.5119V7.09376Z" fill="#040000"/>
<path fill-rule="evenodd" clip-rule="evenodd" d="M53.1423 2.27105C53.1423 0.187906 54.1123 0.00012207 56.0633 0.00012207C57.7713 0.00012207 59.0056 0.0731859 58.9103 2.19799H58.0143C57.9721 0.833579 57.7083 0.781674 56.0315 0.781674C54.281 0.781674 54.0386 1.0002 54.0386 2.08327C54.0386 3.57298 54.7552 3.44801 56.2319 3.48967C58.109 3.59381 59.0582 3.54157 59.0582 5.65613C59.0582 7.86424 58.0032 7.93698 56.0104 7.93698C53.9965 7.93698 52.9525 7.69762 53.1212 5.4376H54.0172C53.9965 7.15609 54.3338 7.15609 56.0104 7.15609C57.6976 7.15609 58.1615 7.15609 58.1615 5.62472C58.1615 4.13534 57.4868 4.38528 56.0418 4.27089C54.4814 4.14559 53.1423 4.33337 53.1423 2.27105" fill="#040000"/>
<mask id="mask0_0_230" style="mask-type:alpha" maskUnits="userSpaceOnUse" x="62" y="5" width="3" height="3">
<path fill-rule="evenodd" clip-rule="evenodd" d="M62.0361 5.43689H64.9996V8.00001H62.0361V5.43689Z" fill="white"/>
</mask>
<g mask="url(#mask0_0_230)">
<path fill-rule="evenodd" clip-rule="evenodd" d="M63.7749 6.70179C64.0092 6.70179 64.0691 6.66145 64.0691 6.49218C64.0691 6.32291 64.0169 6.28258 63.7823 6.28258H62.982V6.70179H63.7749ZM62.6209 5.99958H63.8753C64.2961 5.99958 64.434 6.11364 64.434 6.4664C64.434 6.69451 64.3593 6.7937 64.1585 6.838C64.3332 6.85254 64.4042 6.93354 64.4115 7.13224V7.42615H64.0467V7.19836C64.043 7.01421 64.0022 6.98148 63.786 6.98148H62.982V7.42615H62.6209V5.99958ZM62.5871 5.80452C62.5054 5.85246 62.4421 5.91098 62.4123 5.97379C62.3377 6.12455 62.3005 6.34506 62.3005 6.65054C62.3005 7.26812 62.3712 7.51078 62.5834 7.6212C62.7882 7.72799 63.0449 7.76469 63.5477 7.76469C64.0691 7.76469 64.2924 7.73162 64.4601 7.62881C64.6756 7.49623 64.7355 7.27936 64.7355 6.63963C64.7355 5.81543 64.5491 5.67228 63.4844 5.67228C63.0151 5.67228 62.7507 5.71261 62.5871 5.80452V5.80452ZM64.9996 6.7203C64.9996 7.30118 64.9179 7.60633 64.7241 7.77196C64.5381 7.92635 64.1695 8.00008 63.5587 8.00008C63.0339 8.00008 62.6988 7.95974 62.494 7.87114C62.3749 7.82353 62.2671 7.74253 62.2112 7.6655C62.0957 7.50747 62.0361 7.19836 62.0361 6.77551C62.0361 6.05843 62.1292 5.75692 62.4046 5.60219C62.6021 5.4921 62.9633 5.43689 63.5179 5.43689C64.7653 5.43689 64.9996 5.63889 64.9996 6.7203V6.7203Z" fill="#040000"/>
</g>
</svg>
