<?xml version="1.0" encoding="utf-8"?>
<!-- Generator: Adobe Illustrator 24.2.3, SVG Export Plug-In . SVG Version: 6.00 Build 0)  -->
<svg version="1.1" id="Layer_1" xmlns="http://www.w3.org/2000/svg" xmlns:xlink="http://www.w3.org/1999/xlink" x="0px" y="0px"
	 viewBox="0 0 32 32" style="enable-background:new 0 0 32 32;" xml:space="preserve">
<style type="text/css">
	.st0{fill-rule:evenodd;clip-rule:evenodd;}
</style>
<g>
	<path class="st0" d="M30.8,15.9L29,13.7l0,0L26.2,8c-0.2-0.3-0.5-0.5-0.8-0.5h-4V6.5c0-0.5-0.4-0.9-0.9-0.9H4.6
		C4.1,5.6,3.7,6,3.7,6.5s0.4,0.9,0.9,0.9h14.8v6.6c0,0.5,0.4,0.9,0.9,0.9h7.4l1.4,1.8v4.9h-1.8c-0.4-1.6-1.9-2.9-3.7-2.9
		c-1.8,0-3.3,1.2-3.7,2.9h-5.5c-0.4-1.6-1.9-2.9-3.7-2.9c-1.8,0-3.3,1.2-3.7,2.9H4.6c-0.5,0-0.9,0.4-0.9,0.9c0,0.5,0.4,0.9,0.9,0.9
		h2.6c0.4,1.6,1.9,2.8,3.6,2.8s3.2-1.2,3.6-2.8H20c0.4,1.6,1.9,2.8,3.6,2.8c1.7,0,3.2-1.2,3.6-2.8h2.7c0.5,0,0.9-0.4,0.9-0.9v-6.1
		C31,16.3,30.9,16.1,30.8,15.9z M21.3,9.4h3.5l1.9,3.8h-5.4V9.4z M10.8,24.5c-1,0-1.9-0.8-1.9-1.9c0-1,0.8-1.9,1.9-1.9
		c1,0,1.9,0.8,1.9,1.9C12.7,23.7,11.9,24.5,10.8,24.5z M23.7,24.5c-1,0-1.9-0.8-1.9-1.9c0-1,0.8-1.9,1.9-1.9c1,0,1.8,0.8,1.9,1.8
		c0,0.1,0,0.1,0,0.2c0,0,0,0.1,0,0.1C25.5,23.8,24.7,24.5,23.7,24.5z"/>
	<path class="st0" d="M8.8,17.9c0-0.5-0.4-0.9-0.9-0.9H3.5c-0.5,0-0.9,0.4-0.9,0.9s0.4,0.9,0.9,0.9h4.3C8.4,18.8,8.8,18.4,8.8,17.9z
		"/>
	<path class="st0" d="M11,14.1c0-0.5-0.4-0.9-0.9-0.9H1.9c-0.5,0-0.9,0.4-0.9,0.9c0,0.5,0.4,0.9,0.9,0.9H10
		C10.5,15.1,11,14.7,11,14.1z"/>
	<path class="st0" d="M3.5,11.4h8.1c0.5,0,0.9-0.4,0.9-0.9c0-0.5-0.4-0.9-0.9-0.9H3.5c-0.5,0-0.9,0.4-0.9,0.9
		C2.5,10.9,3,11.4,3.5,11.4z"/>
</g>
</svg>
