<?xml version="1.0" encoding="utf-8"?>
<!-- Generator: Adobe Illustrator 24.2.3, SVG Export Plug-In . SVG Version: 6.00 Build 0)  -->
<svg version="1.1" id="Layer_1" xmlns="http://www.w3.org/2000/svg" xmlns:xlink="http://www.w3.org/1999/xlink" x="0px" y="0px"
	 viewBox="0 0 26.8 26.8" style="enable-background:new 0 0 26.8 26.8;" xml:space="preserve">
<style type="text/css">
	.st0{clip-path:url(#SVGID_2_);enable-background:new    ;}
	.st1{clip-path:url(#SVGID_4_);}
	.st2{clip-path:url(#SVGID_6_);fill:#FFFFFF;}
</style>
<g>
	<defs>
		<path id="SVGID_1_" d="M21.6,6.3H5.3c-0.4,0-0.7,0.2-0.9,0.6l9,6.3l9-6.3C22.3,6.5,21.9,6.3,21.6,6.3z M22.6,9.3l-8.6,6
			c-0.4,0.2-0.8,0.2-1.2,0l-8.6-6l0,10.3c0,0.6,0.5,1,1,1h16.3c0.6,0,1-0.5,1-1L22.6,9.3z M21.6,4.3c1.7,0,3.1,1.4,3.1,3.1v12.2
			c0,1.7-1.4,3.1-3.1,3.1H5.3c-1.7,0-3.1-1.4-3.1-3.1V7.3l0-0.1c0,0,0,0,0,0l0,0.1c0-1.7,1.4-3.1,3.1-3.1H21.6z"/>
	</defs>
	<clipPath id="SVGID_2_">
		<use xlink:href="#SVGID_1_"  style="overflow:visible;"/>
	</clipPath>
	<g class="st0">
		<g>
			<defs>
				<rect id="SVGID_3_" x="0.2" y="2.2" width="28.5" height="22.4"/>
			</defs>
			<clipPath id="SVGID_4_">
				<use xlink:href="#SVGID_3_"  style="overflow:visible;"/>
			</clipPath>
			<g class="st1">
				<defs>
					<rect id="SVGID_5_" x="2.2" y="4.3" width="22.4" height="18.3"/>
				</defs>
				<clipPath id="SVGID_6_">
					<use xlink:href="#SVGID_5_"  style="overflow:visible;"/>
				</clipPath>
				<rect x="0.2" y="2.2" class="st2" width="26.5" height="22.4"/>
			</g>
		</g>
	</g>
</g>
</svg>
