<svg width="20" height="20" viewBox="0 0 20 20" fill="none" xmlns="http://www.w3.org/2000/svg">
<path fill-rule="evenodd" clip-rule="evenodd" d="M5.83366 4.16668H4.16699H2.50033C2.04009 4.16668 1.66699 4.53977 1.66699 5.00001C1.66699 5.46025 2.04009 5.83334 2.50033 5.83334H3.33366V16.6667C3.33366 18.0474 4.45295 19.1667 5.83366 19.1667H14.167C15.5477 19.1667 16.667 18.0474 16.667 16.6667V5.83334H17.5003C17.9606 5.83334 18.3337 5.46025 18.3337 5.00001C18.3337 4.53977 17.9606 4.16668 17.5003 4.16668H15.8337H14.167V3.33334C14.167 1.95263 13.0477 0.833344 11.667 0.833344H8.33366C6.95295 0.833344 5.83366 1.95263 5.83366 3.33334V4.16668ZM7.50032 4.16668H12.5003V3.33334C12.5003 2.87311 12.1272 2.50001 11.667 2.50001H8.33366C7.87342 2.50001 7.50032 2.87311 7.50032 3.33334V4.16668ZM13.3337 5.83334H6.66699H5.00033V16.6667C5.00033 17.1269 5.37342 17.5 5.83366 17.5H14.167C14.6272 17.5 15.0003 17.1269 15.0003 16.6667V5.83334H13.3337ZM7.50033 9.16668V14.1667C7.50033 14.6269 7.87342 15 8.33366 15C8.7939 15 9.16699 14.6269 9.16699 14.1667V9.16668C9.16699 8.70644 8.7939 8.33334 8.33366 8.33334C7.87342 8.33334 7.50033 8.70644 7.50033 9.16668ZM10.8337 14.1667V9.16668C10.8337 8.70644 11.2068 8.33334 11.667 8.33334C12.1272 8.33334 12.5003 8.70644 12.5003 9.16668V14.1667C12.5003 14.6269 12.1272 15 11.667 15C11.2068 15 10.8337 14.6269 10.8337 14.1667Z" fill="black"/>
<mask id="mask0_0_261" style="mask-type:alpha" maskUnits="userSpaceOnUse" x="1" y="0" width="18" height="20">
<path fill-rule="evenodd" clip-rule="evenodd" d="M5.83366 4.16668H4.16699H2.50033C2.04009 4.16668 1.66699 4.53977 1.66699 5.00001C1.66699 5.46025 2.04009 5.83334 2.50033 5.83334H3.33366V16.6667C3.33366 18.0474 4.45295 19.1667 5.83366 19.1667H14.167C15.5477 19.1667 16.667 18.0474 16.667 16.6667V5.83334H17.5003C17.9606 5.83334 18.3337 5.46025 18.3337 5.00001C18.3337 4.53977 17.9606 4.16668 17.5003 4.16668H15.8337H14.167V3.33334C14.167 1.95263 13.0477 0.833344 11.667 0.833344H8.33366C6.95295 0.833344 5.83366 1.95263 5.83366 3.33334V4.16668ZM7.50032 4.16668H12.5003V3.33334C12.5003 2.87311 12.1272 2.50001 11.667 2.50001H8.33366C7.87342 2.50001 7.50032 2.87311 7.50032 3.33334V4.16668ZM13.3337 5.83334H6.66699H5.00033V16.6667C5.00033 17.1269 5.37342 17.5 5.83366 17.5H14.167C14.6272 17.5 15.0003 17.1269 15.0003 16.6667V5.83334H13.3337ZM7.50033 9.16668V14.1667C7.50033 14.6269 7.87342 15 8.33366 15C8.7939 15 9.16699 14.6269 9.16699 14.1667V9.16668C9.16699 8.70644 8.7939 8.33334 8.33366 8.33334C7.87342 8.33334 7.50033 8.70644 7.50033 9.16668ZM10.8337 14.1667V9.16668C10.8337 8.70644 11.2068 8.33334 11.667 8.33334C12.1272 8.33334 12.5003 8.70644 12.5003 9.16668V14.1667C12.5003 14.6269 12.1272 15 11.667 15C11.2068 15 10.8337 14.6269 10.8337 14.1667Z" fill="white"/>
</mask>
<g mask="url(#mask0_0_261)">
</g>
</svg>
