<svg width="14" height="14" viewBox="0 0 14 14" fill="none" xmlns="http://www.w3.org/2000/svg">
<mask id="mask0_43_5686" style="mask-type:alpha" maskUnits="userSpaceOnUse" x="0" y="0" width="14" height="14">
<path fill-rule="evenodd" clip-rule="evenodd" d="M0 0H14V14H0V0Z" fill="#002a49"/>
</mask>
<g mask="url(#mask0_43_5686)">
<path fill-rule="evenodd" clip-rule="evenodd" d="M12.5916 9.82931C12.5916 11.3549 11.3549 12.5916 9.82935 12.5916H4.1707C2.64512 12.5916 1.4084 11.3549 1.4084 9.82931V4.17066C1.4084 2.64508 2.64512 1.40839 4.1707 1.40839H9.82935C11.3549 1.40839 12.5916 2.64508 12.5916 4.17066V9.82931ZM9.82934 0H4.1707C1.87098 0 0 1.87094 0 4.17066V9.82931C0 12.129 1.87098 14 4.1707 14H9.82934C12.1291 14 14 12.129 14 9.82931V4.17066C14 1.87094 12.129 0 9.82934 0Z" fill="#002a49"/>
</g>
<path fill-rule="evenodd" clip-rule="evenodd" d="M7 9.13865C5.81886 9.13865 4.86137 8.18117 4.86137 7.00003C4.86137 5.81885 5.81889 4.8614 7 4.8614C8.18114 4.8614 9.13866 5.81885 9.13866 7.00003C9.13866 8.18113 8.18111 9.13865 7 9.13865ZM7 3.5C5.0701 3.5 3.5 5.0701 3.5 7C3.5 8.9299 5.0701 10.5 7 10.5C8.9299 10.5 10.5 8.9299 10.5 7C10.5 5.07007 8.9299 3.5 7 3.5Z" fill="#002a49"/>
<path fill-rule="evenodd" clip-rule="evenodd" d="M10.4998 2.79999C10.8864 2.79999 11.1998 3.11337 11.1998 3.49997C11.1998 3.88658 10.8864 4.19999 10.4998 4.19999C10.1132 4.19999 9.7998 3.88658 9.7998 3.49997C9.7998 3.11337 10.1132 2.79999 10.4998 2.79999Z" fill="#002a49"/>
</svg>
