<?xml version="1.0" encoding="utf-8"?>
<!-- Generator: Adobe Illustrator 24.2.3, SVG Export Plug-In . SVG Version: 6.00 Build 0)  -->
<svg version="1.1" id="Layer_1" xmlns="http://www.w3.org/2000/svg" xmlns:xlink="http://www.w3.org/1999/xlink" x="0px" y="0px"
	 viewBox="0 0 20 20" style="enable-background:new 0 0 20 20;" xml:space="preserve">
<style type="text/css">
	.st0{fill:#FFFFFF;}
</style>
<path class="st0" d="M19,11.9v6.7h-3.9v-6.2c0-1.6-0.6-2.6-2-2.6c-1.1,0-1.7,0.7-2,1.4c-0.1,0.2-0.1,0.6-0.1,0.9v6.5H7.2V7h3.9v1.6
	c0,0,0,0,0,0h0v0c0.5-0.8,1.4-1.9,3.5-1.9C17.1,6.7,19,8.4,19,11.9L19,11.9z M3.2,1.4C1.9,1.4,1,2.3,1,3.4c0,1.1,0.8,2,2.1,2h0
	c1.3,0,2.2-0.9,2.2-2C5.3,2.3,4.5,1.4,3.2,1.4L3.2,1.4z M1.2,18.6h3.9V7H1.2V18.6z"/>
</svg>
