<?xml version="1.0" encoding="utf-8"?>
<!-- Generator: Adobe Illustrator 24.2.3, SVG Export Plug-In . SVG Version: 6.00 Build 0)  -->
<svg version="1.1" id="Layer_1" xmlns="http://www.w3.org/2000/svg" xmlns:xlink="http://www.w3.org/1999/xlink" x="0px" y="0px"
	 viewBox="0 0 175.8 34" style="enable-background:new 0 0 175.8 34;" xml:space="preserve">
<style type="text/css">
	.st0{fill:#FFFF;}
</style>
<g>
	<defs>
		<rect id="SVGID_1_" width="175.8" height="34"/>
	</defs>
	<clipPath id="SVGID_2_">
		<use xlink:href="#SVGID_1_"  style="overflow:visible;"/>
	</clipPath>
</g>
<g>
	<g>
		<path class="st0" d="M3.1,23.6l1.6-0.5V10.9l-1.6-0.5V9.9h10.2l0.1,4H13c-0.5-1.3-1.1-2.4-1.9-3.3H7v5.8h2.1
			c0.7-0.5,1.3-1.4,1.5-2.6h0.5v5.9h-0.5c-0.2-1.2-0.7-2.1-1.5-2.6H7v5.9l1.8,0.5v0.4H3.1V23.6z"/>
		<path class="st0" d="M15.4,23.6l1.6-0.5V10.9l-1.6-0.5V9.9h10.2l0.1,3.9h-0.5c-0.5-1.2-1.1-2.3-1.9-3.2h-4.1v5.7h2.1
			c0.7-0.5,1.3-1.4,1.5-2.6h0.5v5.9h-0.5c-0.2-1.2-0.7-2.1-1.5-2.6h-2.1v6.3h4.4c0.9-1,1.7-2.6,2.1-3.8h0.5L26,24.1H15.4V23.6z"/>
		<path class="st0" d="M28.7,23.6l1.6-0.5V10.9l-1.6-0.5V9.9h6.4c1.8,0,4.4,0.8,4.4,3.6c0,2.2-1.6,3.1-3.1,3.5l3.8,6.1l1.3,0.5v0.4
			h-5.3v-0.4l1.4-0.4l-3.5-5.7h-1.6v5.7l1.6,0.5v0.4h-5.4V23.6z M33.8,16.7c1.9,0,3.2-0.7,3.2-3.1c0-2.2-1.3-3-2.7-3h-1.7v6.1H33.8z
			"/>
		<path class="st0" d="M42.9,23.6l1.6-0.5V10.9L43,10.4V9.9h6.4c1.8,0,4.4,0.8,4.4,3.6c0,2.2-1.6,3.1-3.1,3.5l3.8,6.1l1.3,0.5v0.4
			h-5.3v-0.4l1.4-0.4l-3.5-5.7h-1.6v5.7l1.6,0.5v0.4h-5.4V23.6z M48,16.7c1.9,0,3.2-0.7,3.2-3.1c0-2.2-1.3-3-2.7-3h-1.7v6.1H48z"/>
		<path class="st0" d="M57.1,23.6l1.6-0.5V10.9l-1.6-0.5V9.9h10.2l0.1,3.9H67c-0.5-1.2-1.1-2.3-1.9-3.2H61v5.7h2.1
			c0.7-0.5,1.3-1.4,1.5-2.6h0.5v5.9h-0.5c-0.2-1.2-0.7-2.1-1.5-2.6H61v6.3h4.4c0.9-1,1.7-2.6,2.1-3.8H68l-0.3,4.6H57.1V23.6z"/>
		<path class="st0" d="M70.4,23.6l1.6-0.5V10.9l-1.6-0.5V9.9h6.1c1.8,0,4.7,0.6,4.7,3.7c0,3.2-2.6,4.2-5.1,4.2
			c-0.6,0-1.3-0.1-1.8-0.2v5.5l1.6,0.5v0.4h-5.5V23.6z M78.8,13.7c0-2.3-1.3-3.1-2.7-3.1h-1.8v6.3c0.6,0.1,1,0.2,1.6,0.2
			C77.8,17.1,78.8,16.2,78.8,13.7z"/>
		<path class="st0" d="M80.8,23.6l1.5-0.6l4.4-13.2h1L92,23.1l1.5,0.6v0.4h-5.3v-0.4l1.5-0.5l-1.1-3.6h-4.4l-1.1,3.5l1.6,0.6v0.4
			h-3.9V23.6z M88.3,18.8l-2-5.9l-1.9,5.9H88.3z"/>
		<path class="st0" d="M94.7,17c0-3.6,2-7.4,6-7.4c1.8,0,3.1,0.5,3.8,0.9V14h-0.5l-0.7-1.8c-0.8-1.1-1.4-1.6-2.6-1.8
			c-1.5,0-2.7,1-3.2,2.8C97.4,14,97.2,15,97.2,17c0,2,0.3,3.3,0.4,3.8c0.4,1.7,1.5,2.8,3.1,2.8c1.5-0.2,2-0.7,2.7-1.8l0.7-1.8h0.5
			v3.4c-0.7,0.4-2.9,0.9-4,0.9C96.7,24.3,94.7,20.8,94.7,17z"/>
		<path class="st0" d="M107.6,23.6l1.6-0.5V10.9l-1.6-0.5V9.9h5.5v0.4l-1.6,0.5v12.2l1.6,0.5v0.4h-5.5V23.6z"/>
		<path class="st0" d="M115.2,23.6l1.6-0.5V10.9l-1.6-0.5V9.9h10.2l0.1,4H125c-0.5-1.3-1.1-2.4-1.9-3.3H119v5.8h2.1
			c0.7-0.5,1.3-1.4,1.5-2.6h0.5v5.9h-0.5c-0.2-1.2-0.7-2.1-1.5-2.6H119v5.9l1.8,0.5v0.4h-5.6V23.6z"/>
		<path class="st0" d="M127.6,23.6l1.6-0.5V10.9l-1.6-0.5V9.9h5.5v0.4l-1.6,0.5v12.2l1.6,0.5v0.4h-5.5V23.6z"/>
		<path class="st0" d="M135.4,17c0-3.6,2-7.4,6-7.4c1.8,0,3.1,0.5,3.8,0.9V14h-0.5l-0.7-1.8c-0.8-1.1-1.4-1.6-2.6-1.8
			c-1.5,0-2.7,1-3.2,2.8c-0.2,0.8-0.4,1.8-0.4,3.8c0,2,0.3,3.3,0.4,3.8c0.4,1.7,1.5,2.8,3.1,2.8c1.5-0.2,2-0.7,2.7-1.8l0.7-1.8h0.5
			v3.4c-0.7,0.4-2.9,0.9-4,0.9C137.4,24.3,135.4,20.8,135.4,17z"/>
		<path class="st0" d="M147.8,17c0-3.8,2-7.4,5.9-7.4c3.6,0,5.9,3.2,5.9,7.4c0,4.2-2.3,7.4-5.9,7.4C149.8,24.4,147.8,20.8,147.8,17z
			 M156.6,21c0.3-0.9,0.5-2,0.5-4c0-2-0.2-3.3-0.5-4.1c-0.5-1.5-1.3-2.6-2.9-2.6c-1.6,0-2.4,1.2-2.9,2.6c-0.3,0.8-0.5,2-0.5,4.1
			c0,2.1,0.2,3.1,0.5,4c0.4,1.4,1.3,2.6,2.9,2.6C155.3,23.6,156.2,22.4,156.6,21z"/>
	</g>
	<g>
		<path class="st0" d="M166.2,21c0-1.8,1.5-3.3,3.3-3.3c1.8,0,3.3,1.5,3.3,3.3c0,1.8-1.5,3.3-3.3,3.3
			C167.6,24.3,166.2,22.8,166.2,21z M171.9,21c0-1.5-1.1-2.6-2.5-2.6c-1.4,0-2.5,1.1-2.5,2.6s1.1,2.6,2.5,2.6
			C170.8,23.6,171.9,22.5,171.9,21z M168.2,19.1h1.4c0.9,0,1.4,0.3,1.4,1.1c0,0.6-0.4,0.9-1,1l1,1.6h-0.7l-1-1.6h-0.4v1.6h-0.7V19.1
			z M168.9,20.7h0.6c0.4,0,0.8-0.1,0.8-0.6c0-0.4-0.4-0.5-0.8-0.5h-0.6V20.7z"/>
	</g>
</g>
</svg>
