<?xml version="1.0" encoding="utf-8"?>
<!-- Generator: Adobe Illustrator 24.2.3, SVG Export Plug-In . SVG Version: 6.00 Build 0)  -->
<svg version="1.1" id="Layer_1" xmlns="http://www.w3.org/2000/svg" xmlns:xlink="http://www.w3.org/1999/xlink" x="0px" y="0px"
	 viewBox="0 0 75.9 45" style="enable-background:new 0 0 75.9 45;" xml:space="preserve">
<style type="text/css">
	.st0{fill-rule:evenodd;clip-rule:evenodd;fill:#999999;}
	.st1{fill-rule:evenodd;clip-rule:evenodd;fill:#FFFFFF;}
	.st2{fill-rule:evenodd;clip-rule:evenodd;fill:#B3B3B3;}
</style>
<g>
	<path class="st0" d="M3.7,8.8c0-1.2,1-2.1,2.1-2.1h64.2c1.2,0,2.1,1,2.1,2.1v27.3c0,1.2-1,2.1-2.1,2.1H5.8c-1.2,0-2.1-1-2.1-2.1
		V8.8L3.7,8.8z"/>
	<polygon class="st1" points="3.7,9.8 72.2,9.8 72.2,35.2 3.7,35.2 3.7,9.8 	"/>
	<path class="st2" d="M61.8,16.4c-3.1,0-5.7,2.6-5.7,5.7c0,3.1,2.6,5.7,5.7,5.7c3.1,0,5.7-2.6,5.7-5.7C67.5,19,64.9,16.4,61.8,16.4
		L61.8,16.4z"/>
	<path class="st2" d="M14.9,16.4c-3.1,0-5.7,2.6-5.7,5.7c0,3.1,2.6,5.7,5.7,5.7c3.1,0,5.7-2.6,5.7-5.7C20.6,19,18,16.4,14.9,16.4
		L14.9,16.4z"/>
	<path class="st2" d="M61.3,11.4c-5.3-0.1-7.7,3.3-11.3,7.4l-3.4,3.9l5.4,6.4c1.3,2-1.2,3.9-2.7,2.1l-5-5.9L39.5,31
		c-1.5,1.8-4-0.2-2.6-2.2l5.3-6.1l-3.4-4.1l2.2-2.7l3.5,4.2l3-3.5c1.5-1.7,3-4,4.9-5.2H3.7v22.2h11.4c5.3,0,7.7-3.1,11.2-7.4l3.3-4
		L24,15.9c-1.3-1.9,1.1-4,2.6-2.2l5.1,5.8l4.7-5.7c1.5-1.8,4,0.1,2.7,2.1L34,22.1l3.5,4l-2.2,2.6l-3.5-4l-2.9,3.6
		c-1.4,1.8-2.9,4-4.8,5.2h48.2V11.4H61.3L61.3,11.4z M23.9,22.1c0,5-4,9-9,9c-5,0-9-4-9-9c0-5,4-9,9-9
		C19.8,13.1,23.9,17.1,23.9,22.1L23.9,22.1z M61.8,31.1c-5,0-9-4-9-9c0-5,4-9,9-9c5,0,9,4,9,9C70.8,27,66.7,31.1,61.8,31.1
		L61.8,31.1z"/>
</g>
</svg>
