<svg width="15" height="14" viewBox="0 0 15 14" fill="none" xmlns="http://www.w3.org/2000/svg">
<path fill-rule="evenodd" clip-rule="evenodd" d="M0.548828 5.95C0.548828 9.23609 3.21273 11.9 6.49883 11.9C9.78492 11.9 12.4488 9.23609 12.4488 5.95C12.4488 2.66391 9.78492 0 6.49883 0C3.21273 0 0.548828 2.66391 0.548828 5.95ZM11.0488 5.95C11.0488 8.4629 9.01172 10.5 6.49883 10.5C3.98593 10.5 1.94883 8.4629 1.94883 5.95C1.94883 3.4371 3.98593 1.4 6.49883 1.4C9.01172 1.4 11.0488 3.4371 11.0488 5.95Z" fill="white"/>
<path d="M14.3438 12.805L10.7038 9.16503C10.4304 8.89166 9.98718 8.89166 9.71381 9.16503C9.44045 9.4384 9.44045 9.88161 9.71381 10.155L13.3538 13.795C13.6272 14.0683 14.0704 14.0683 14.3438 13.795C14.6171 13.5216 14.6171 13.0784 14.3438 12.805Z" fill="white"/>
</svg>
