<svg width="18" height="18" viewBox="0 0 18 18" fill="none" xmlns="http://www.w3.org/2000/svg">
<path fill-rule="evenodd" clip-rule="evenodd" d="M1.31825 8.98045L6.88168 10.3713L8.27254 15.9347C8.44334 16.6179 9.37648 16.7103 9.67795 16.0739L16.428 1.82391C16.7296 1.18703 16.066 0.523359 15.4291 0.82504L1.17908 7.57504C0.542643 7.87651 0.635042 8.80965 1.31825 8.98045ZM7.68205 9.02523L3.71516 8.03351L14.1734 3.07962L9.21948 13.5378L8.22775 9.57093C8.16057 9.30222 7.95076 9.09241 7.68205 9.02523Z" fill="black"/>
<mask id="mask0_0_290" style="mask-type:alpha" maskUnits="userSpaceOnUse" x="0" y="0" width="17" height="17">
<path fill-rule="evenodd" clip-rule="evenodd" d="M1.31825 8.98045L6.88168 10.3713L8.27254 15.9347C8.44334 16.6179 9.37648 16.7103 9.67795 16.0739L16.428 1.82391C16.7296 1.18703 16.066 0.523359 15.4291 0.82504L1.17908 7.57504C0.542643 7.87651 0.635042 8.80965 1.31825 8.98045ZM7.68205 9.02523L3.71516 8.03351L14.1734 3.07962L9.21948 13.5378L8.22775 9.57093C8.16057 9.30222 7.95076 9.09241 7.68205 9.02523Z" fill="white"/>
</mask>
<g mask="url(#mask0_0_290)">
</g>
</svg>
