<?xml version="1.0" encoding="utf-8"?>
<!-- Generator: Adobe Illustrator 24.2.3, SVG Export Plug-In . SVG Version: 6.00 Build 0)  -->
<svg version="1.1" id="Layer_1" xmlns="http://www.w3.org/2000/svg" xmlns:xlink="http://www.w3.org/1999/xlink" x="0px" y="0px"
	 viewBox="0 0 126 45" style="enable-background:new 0 0 126 45;" xml:space="preserve">
<style type="text/css">
	.st0{fill-rule:evenodd;clip-rule:evenodd;fill:#A2A2A2;}
	.st1{fill-rule:evenodd;clip-rule:evenodd;fill:#B6B6B6;}
	.st2{fill-rule:evenodd;clip-rule:evenodd;fill:#888888;}
</style>
<g>
	<polygon class="st0" points="112.6,11.9 113.1,11.9 113.6,11.9 114.4,12 114.9,12.2 115.3,12.4 115.7,12.6 115.9,12.8 116.4,13.3 
		116.7,13.9 117,14.6 117.1,15.4 117.1,33 111.2,33 111.2,18.4 111,17.9 110.5,17.5 110.1,17.2 109.5,17.1 109,17.2 108.5,17.5 
		108.2,18 107.9,18.5 107.9,33 101.9,33 101.9,12.4 107.9,12.4 107.9,14.4 108.6,13.8 109.1,13.3 109.5,13 109.9,12.8 110.4,12.5 
		111,12.3 111.7,12 112.6,11.9 	"/>
	<polygon class="st0" points="50.2,12.4 50.2,28.4 54.5,28.4 54.5,33 44.2,33 44.2,12.4 50.2,12.4 	"/>
	<polygon class="st0" points="76.2,12.4 78.5,25.6 81,12.4 85.7,12.4 81.8,33 72.8,33 69.8,12.4 76.2,12.4 	"/>
	<polygon class="st0" points="98.6,12.4 98.6,17 93.6,17 93.6,20.7 98.6,20.7 98.6,24.7 93.6,24.7 93.6,28.4 98.6,28.4 98.6,33 
		87.6,33 87.6,12.4 98.6,12.4 	"/>
	<polygon class="st0" points="26.3,20.8 26.3,24.7 19.3,24.7 19.3,20.8 26.3,20.8 	"/>
	<polygon class="st0" points="40.2,12.4 40.2,17 35.2,17 35.2,20.7 40.2,20.7 40.2,24.7 35.2,24.7 35.2,28.4 40.2,28.4 40.2,33 
		29.3,33 29.3,12.4 40.2,12.4 	"/>
	<polygon class="st0" points="67.6,12.4 67.6,17 62.6,17 62.6,20.7 67.6,20.7 67.6,24.7 62.6,24.7 62.6,28.4 67.6,28.4 67.6,33 
		56.6,33 56.6,12.4 67.6,12.4 	"/>
	<polygon class="st1" points="2.8,17.3 9.8,17.3 11.4,15.6 12.3,14.8 13.4,13.9 14.3,13.2 15.5,12.5 2.8,12.5 2.8,17.3 	"/>
	<path class="st2" d="M18.2,12.3c-3.9,1-7.7,4.8-8.9,7.5c-2.5,5.6-2,13.2-2,13.2s4.3,0,6.1,0c-0.1-5.3,0-8.6,0.7-11.2
		c0.8-2.6,4.1-4.3,4.1-4.3V12.3L18.2,12.3z"/>
	<path class="st0" d="M118.8,30.7c0-1.1,0.9-2,1.9-2c1.1,0,1.9,0.9,1.9,2c0,1.1-0.9,2-1.9,2C119.7,32.7,118.8,31.9,118.8,30.7
		L118.8,30.7z M120.8,33.1c1.3,0,2.4-1,2.4-2.4c0-1.4-1.1-2.4-2.4-2.4c-1.3,0-2.4,1-2.4,2.4C118.4,32.1,119.5,33.1,120.8,33.1
		L120.8,33.1z M120.3,30.9h0.5l0.7,1.2h0.5l-0.8-1.2c0.4-0.1,0.7-0.3,0.7-0.8c0-0.5-0.3-0.8-1-0.8h-1v2.8h0.4V30.9L120.3,30.9z
		 M120.3,30.6v-0.9h0.6c0.3,0,0.6,0.1,0.6,0.4c0,0.4-0.3,0.4-0.7,0.4H120.3L120.3,30.6z"/>
</g>
</svg>
