<?xml version="1.0" encoding="utf-8"?>
<!-- Generator: Adobe Illustrator 24.2.3, SVG Export Plug-In . SVG Version: 6.00 Build 0)  -->
<svg version="1.1" id="Layer_1" xmlns="http://www.w3.org/2000/svg" xmlns:xlink="http://www.w3.org/1999/xlink" x="0px" y="0px"
	 viewBox="0 0 26.8 26.8" style="enable-background:new 0 0 26.8 26.8;" xml:space="preserve">
<style type="text/css">
	.st0{clip-path:url(#SVGID_2_);enable-background:new    ;}
	.st1{clip-path:url(#SVGID_4_);}
	.st2{clip-path:url(#SVGID_6_);fill:#FFFFFF;}
</style>
<g>
	<defs>
		<path id="SVGID_1_" d="M24.1,21.2c0,0.8-0.3,1.6-0.9,2.2s-1.4,0.8-2.3,0.8c-3.2-0.3-6.2-1.4-8.8-3.1c-2.5-1.6-4.6-3.7-6.1-6.1
			c-1.7-2.7-2.8-5.7-3.1-8.9C2.7,5.1,2.9,4.3,3.5,3.7c0.6-0.6,1.3-1,2.2-1h2.9c1.5,0,2.7,1.1,2.9,2.5c0.1,0.9,0.3,1.7,0.6,2.5
			c0.4,1.1,0.1,2.3-0.7,3.1l-0.7,0.7c1.1,1.8,2.7,3.3,4.5,4.5l0.7-0.7c0.8-0.8,2-1.1,3.1-0.7c0.8,0.3,1.7,0.5,2.5,0.6
			c1.5,0.2,2.5,1.5,2.5,3L24.1,21.2z M22.1,18.2c0-0.5-0.3-0.9-0.8-1c-1-0.1-2-0.4-3-0.7c-0.4-0.1-0.8,0-1,0.2L16.1,18
			c-0.3,0.3-0.8,0.4-1.2,0.2c-2.6-1.5-4.7-3.6-6.2-6.2c-0.2-0.4-0.2-0.9,0.2-1.2l1.2-1.2c0.3-0.3,0.4-0.7,0.2-1
			c-0.4-1-0.6-1.9-0.7-2.9C9.5,5,9.1,4.7,8.6,4.7H5.7C5.4,4.7,5.1,4.8,4.9,5C4.8,5.2,4.7,5.5,4.7,5.7c0.3,2.9,1.3,5.6,2.8,8
			c1.4,2.2,3.3,4.1,5.6,5.6c2.4,1.6,5.1,2.5,8,2.8c0.3,0,0.5-0.1,0.7-0.3c0.2-0.2,0.3-0.4,0.3-0.7V18.2z"/>
	</defs>
	<clipPath id="SVGID_2_">
		<use xlink:href="#SVGID_1_"  style="overflow:visible;"/>
	</clipPath>
	<g class="st0">
		<g>
			<defs>
				<rect id="SVGID_3_" x="-0.8" y="-0.9" width="26.8" height="26.8"/>
			</defs>
			<clipPath id="SVGID_4_">
				<use xlink:href="#SVGID_3_"  style="overflow:visible;"/>
			</clipPath>
			<g class="st1">
				<defs>
					<rect id="SVGID_5_" x="2.7" y="2.7" width="21.5" height="21.5"/>
				</defs>
				<clipPath id="SVGID_6_">
					<use xlink:href="#SVGID_5_"  style="overflow:visible;"/>
				</clipPath>
				<rect x="0.9" y="0.9" class="st2" width="25" height="25"/>
			</g>
		</g>
	</g>
</g>
</svg>
