<svg width="56" height="20" viewBox="0 0 56 20" fill="none" xmlns="http://www.w3.org/2000/svg">
<mask id="mask0_0_351" style="mask-type:alpha" maskUnits="userSpaceOnUse" x="0" y="0" width="56" height="20">
<path fill-rule="evenodd" clip-rule="evenodd" d="M0 0H56V20H0V0Z" fill="white"/>
</mask>
<g mask="url(#mask0_0_351)">
<path fill-rule="evenodd" clip-rule="evenodd" d="M52.6226 20.0001H3.37749C1.51185 20.0001 -0.000244141 18.5002 -0.000244141 16.65V3.3505C-0.000244141 1.49991 1.51185 0 3.37749 0H52.6226C54.4874 0 55.9999 1.49991 55.9999 3.3505V16.65C55.9999 18.5002 54.4874 20.0001 52.6226 20.0001Z" fill="#016FD0"/>
</g>
<path fill-rule="evenodd" clip-rule="evenodd" d="M42.1269 16.9683L43.5736 15.0066L44.9984 16.9683H52L47.7041 10.452L52 4H45.1109L43.6371 5.92047L42.21 4L23.7177 4.03212L22.7355 6.95482L21.7222 4.03212H15.2752V8.07589L13.5735 4.03212H8.38741L3 17H9.09361L9.8847 14.9561H12.0086L12.8051 17L42.1269 16.9683Z" fill="white"/>
<path fill-rule="evenodd" clip-rule="evenodd" d="M10.9625 8.09475L12.3852 11.2439H9.53545L10.9625 8.09475ZM9.35229 6L5 15H7.83346L8.63639 13.1979H13.3048L14.1039 15H17L12.6515 6H9.35229Z" fill="#016FD0"/>
<path fill-rule="evenodd" clip-rule="evenodd" d="M17 15V6L20.82 6.01319L23.0417 11.816L25.2108 6H29V15H26.6V8.36824L24.0562 15H21.9511L19.4 8.36824V15H17Z" fill="#016FD0"/>
<path fill-rule="evenodd" clip-rule="evenodd" d="M30 15V6H38V8.01309H32.4771V9.55236H37.8707V11.4472H32.4771V13.046H38V15H30Z" fill="#016FD0"/>
<path fill-rule="evenodd" clip-rule="evenodd" d="M39.0857 15L42.6876 10.5553L39 6H41.8558L44.0521 8.81612L46.2556 6H49L45.3613 10.5L48.9696 15H46.1138L43.9814 12.2281L41.9008 15H39.0857Z" fill="#016FD0"/>
</svg>
