<?xml version="1.0" encoding="utf-8"?>
<!-- Generator: Adobe Illustrator 24.2.3, SVG Export Plug-In . SVG Version: 6.00 Build 0)  -->
<svg version="1.1" id="Capa_1" xmlns="http://www.w3.org/2000/svg" xmlns:xlink="http://www.w3.org/1999/xlink" x="0px" y="0px"
	 viewBox="0 0 119 84" style="enable-background:new 0 0 119 84;" xml:space="preserve">
<style type="text/css">
	.st0{fill:#9B9B9B;}
	.st1{fill:#D8D9DA;}
</style>
<g>
	<g>
		<g>
			<g>
				<g>
					<path class="st0" d="M70.5,44.2c0-2.8-1.2-5.2-5.2-5.2c-2.1,0-3.7,0.6-4.6,1.1l0.7,2.2c0.8-0.5,2.1-0.9,3.3-0.9
						c2,0,2.4,1.2,2.4,1.9v0.2c-4.4,0-7.2,1.5-7.2,4.7c0,1.9,1.4,3.7,3.9,3.7c1.5,0,2.8-0.6,3.6-1.6h0.1c0,0,0.5,2.1,3.3,1.3
						c-0.1-0.9-0.2-1.8-0.2-3 M67.1,47.1c0,0.2,0,0.5-0.1,0.7c-0.3,0.9-1.1,1.6-2.2,1.6c-0.9,0-1.6-0.5-1.6-1.6c0-1.7,1.9-2.2,4-2.1
						V47.1z"/>
					<path class="st0" d="M1.3,35.1c0,0,2.9,11.9,3.4,13.8c0.5,2.3,1.5,3.1,4.3,2.5l1.8-7.4c0.5-1.8,0.8-3.1,1.1-5h0.1
						c0.2,1.9,0.5,3.2,0.9,5c0,0,0.7,3.3,1.1,5.1c0.4,1.8,1.4,2.9,4.2,2.3l4.3-16.3h-3.5l-1.5,7.1c-0.4,2.1-0.8,3.7-1,5.5h0
						c-0.3-1.9-0.6-3.4-1-5.4l-1.5-7.2h-3.6l-1.6,7c-0.5,2.1-0.9,3.9-1.2,5.7h0C7,46.1,6.7,44,6.2,41.9c0,0-1-5-1.3-6.8"/>
					<path class="st0" d="M32.3,44.2c0-2.8-1.2-5.2-5.2-5.2c-2.1,0-3.7,0.6-4.6,1.1l0.7,2.2c0.8-0.5,2.1-0.9,3.3-0.9
						c2,0,2.4,1.2,2.4,1.9v0.2c-4.4,0-7.2,1.5-7.2,4.7c0,1.9,1.4,3.7,3.9,3.7c1.5,0,2.8-0.6,3.6-1.6h0.1c0,0,0.5,2.1,3.3,1.3
						c-0.1-0.9-0.2-1.8-0.2-3 M29,47.1c0,0.2,0,0.5-0.1,0.7c-0.3,0.9-1.1,1.6-2.2,1.6c-0.9,0-1.6-0.5-1.6-1.6c0-1.7,1.9-2.2,4-2.1
						V47.1z"/>
					<polyline class="st0" points="37.8,48 37.8,35.1 34.5,35.1 34.5,51.5 37.8,51.5 					"/>
					<path class="st0" d="M81.2,35.1v12.1c0,1.7,0.3,2.8,1,3.5c0.6,0.6,1.5,1,2.7,1c1,0,1.9-0.2,2.4-0.4l0-2.6
						C86.9,48.9,86.6,49,86,49c-1.1,0-1.5-0.7-1.5-2.2v-4.6h2.9V39h-2.9v-3.9"/>
					<path class="st0" d="M72.7,39.2v12.3h3.4v-6.3c0-0.3,0-0.6,0.1-0.9c0.3-1.3,1.3-2.2,2.7-2.2c0.4,0,0.7,0,1,0.1V39
						c-0.3-0.1-0.4-0.1-0.8-0.1c-1.3,0-2.7,0.8-3.3,2.6h-0.1v-2.3"/>
					<path class="st0" d="M40.1,39.2v12.3h3.3v-7.2c0-0.3,0-0.7,0.2-1c0.3-0.7,1-1.6,2-1.6c1.3,0,2,1.1,2,2.8v7H51v-7.3
						c0-0.3,0-0.7,0.1-1c0.3-0.8,1-1.5,2-1.5c1.4,0,2,1.1,2,3.1v6.7h3.3v-7.2c0-3.8-1.9-5.3-4.1-5.3c-1,0-1.7,0.2-2.4,0.7
						c-0.6,0.4-1.1,0.9-1.6,1.5h0c-0.5-1.3-1.8-2.2-3.4-2.2c-2.1,0-3,1.1-3.6,1.9h0v-1.7"/>
					<path class="st1" d="M105.3,37.4c0.7,0,1.2-0.3,1.3-0.8l0.7-7.4c0-0.7-0.9-1.3-1.9-1.3c-1.1,0-1.9,0.6-1.9,1.3l0.7,7.4
						C104.1,37.1,104.7,37.4,105.3,37.4"/>
					<path class="st1" d="M101.4,39.7c0.3-0.6,0.3-1.2,0-1.5L95.3,34c-0.6-0.4-1.6,0.1-2.1,1c-0.5,0.9-0.4,2,0.2,2.3l6.7,3.1
						C100.5,40.6,101,40.3,101.4,39.7"/>
					<path class="st1" d="M109.3,39.7c0.3,0.6,0.9,0.9,1.3,0.7l6.7-3.1c0.6-0.4,0.7-1.4,0.2-2.3c-0.5-0.9-1.5-1.4-2.1-1l-6.1,4.2
						C109,38.5,109,39.1,109.3,39.7"/>
					<path class="st1" d="M105.3,46.6c0.7,0,1.2,0.3,1.3,0.8l0.7,7.4c0,0.7-0.9,1.3-1.9,1.3c-1.1,0-1.9-0.6-1.9-1.3l0.7-7.4
						C104.1,46.9,104.7,46.6,105.3,46.6"/>
					<path class="st1" d="M109.3,44.3c0.3-0.6,0.9-0.9,1.3-0.7l6.7,3.1c0.6,0.4,0.7,1.4,0.2,2.3c-0.5,0.9-1.5,1.4-2.1,1l-6.1-4.2
						C109,45.5,109,44.9,109.3,44.3"/>
					<path class="st1" d="M101.4,44.3c0.3,0.6,0.3,1.2,0,1.5L95.3,50c-0.6,0.4-1.6-0.1-2.1-1c-0.5-0.9-0.4-2,0.2-2.3l6.7-3.1
						C100.5,43.4,101,43.7,101.4,44.3"/>
				</g>
			</g>
		</g>
	</g>
</g>
</svg>
