<?xml version="1.0" encoding="utf-8"?>
<!-- Generator: Adobe Illustrator 24.2.3, SVG Export Plug-In . SVG Version: 6.00 Build 0)  -->
<svg version="1.1" id="Layer_1" xmlns="http://www.w3.org/2000/svg" xmlns:xlink="http://www.w3.org/1999/xlink" x="0px" y="0px"
	 viewBox="0 0 63 45" style="enable-background:new 0 0 63 45;" xml:space="preserve">
<style type="text/css">
	.st0{fill-rule:evenodd;clip-rule:evenodd;fill:#C7C8CA;}
	.st1{fill-rule:evenodd;clip-rule:evenodd;fill:#FFFFFF;}
</style>
<g>
	<path class="st0" d="M56,3c2.4,0,4.4,2,4.4,4.4v17.2v8.4v4.8c0,2.4-2,4.4-4.4,4.4H7c-2.4,0-4.4-2-4.4-4.4v-16v-4V7.3
		C2.7,4.9,4.6,3,7,3H56z"/>
	<path class="st1" d="M13.9,33.5v-9.1h9.6l1,1.3l1.1-1.3h34.8v8.4c0,0-0.9,0.6-2,0.6H39.1l-1.2-1.4v1.4h-3.8v-2.4
		c0,0-0.5,0.3-1.6,0.3h-1.3v2.1h-5.8l-1-1.4l-1,1.4L13.9,33.5L13.9,33.5z"/>
	<path class="st1" d="M2.7,17.7l2.2-5h3.7l1.2,2.8v-2.8h4.6l0.7,2l0.7-2h20.9v1c0,0,1.1-1,2.9-1l6.8,0l1.2,2.8v-2.8h3.9l1.1,1.6
		v-1.6h3.9v9.1h-3.9l-1-1.6v1.6h-5.7l-0.6-1.4h-1.5l-0.6,1.4h-3.9c-1.6,0-2.5-1-2.5-1v1h-5.8l-1.2-1.4v1.4H8l-0.6-1.4H5.9l-0.6,1.4
		H2.7V17.7L2.7,17.7z"/>
	<path class="st0" d="M5.6,13.7l-2.9,6.8h1.9l0.5-1.4h3.1l0.5,1.4h1.9l-2.9-6.8H5.6L5.6,13.7z M6.7,15.3l1,2.4H5.7L6.7,15.3
		L6.7,15.3z"/>
	<polygon class="st0" points="10.9,20.5 10.9,13.7 13.6,13.7 15.2,18.1 16.7,13.7 19.4,13.7 19.4,20.5 17.7,20.5 17.7,15.5 
		15.9,20.5 14.4,20.5 12.6,15.5 12.6,20.5 10.9,20.5 	"/>
	<polygon class="st0" points="20.6,20.5 20.6,13.7 26.1,13.7 26.1,15.2 22.3,15.2 22.3,16.4 26,16.4 26,17.8 22.3,17.8 22.3,19 
		26.1,19 26.1,20.5 20.6,20.5 	"/>
	<path class="st0" d="M27.1,13.7v6.8h1.7v-2.4h0.7l2,2.4h2.1L31.3,18c0.9-0.1,1.9-0.9,1.9-2.1c0-1.4-1.1-2.2-2.4-2.2H27.1L27.1,13.7
		z M28.8,15.2h1.9c0.5,0,0.8,0.4,0.8,0.7c0,0.5-0.4,0.7-0.8,0.7h-2L28.8,15.2L28.8,15.2L28.8,15.2z"/>
	<polygon class="st0" points="35.6,20.5 33.9,20.5 33.9,13.7 35.6,13.7 35.6,20.5 	"/>
	<path class="st0" d="M39.7,20.5h-0.4c-1.8,0-2.9-1.4-2.9-3.4c0-2,1.1-3.4,3.4-3.4h1.9v1.6h-1.9c-0.9,0-1.6,0.7-1.6,1.8
		c0,1.3,0.7,1.9,1.8,1.9h0.4L39.7,20.5L39.7,20.5z"/>
	<path class="st0" d="M43.4,13.7l-2.9,6.8h1.9l0.5-1.4h3.1l0.5,1.4h1.9l-2.9-6.8H43.4L43.4,13.7z M44.5,15.3l1,2.4h-1.9L44.5,15.3
		L44.5,15.3z"/>
	<polygon class="st0" points="48.7,20.5 48.7,13.7 50.9,13.7 53.6,18 53.6,13.7 55.3,13.7 55.3,20.5 53.2,20.5 50.4,16.1 50.4,20.5 
		48.7,20.5 	"/>
	<polygon class="st0" points="15,32.4 15,25.6 20.6,25.6 20.6,27.1 16.7,27.1 16.7,28.3 20.5,28.3 20.5,29.7 16.7,29.7 16.7,30.9 
		20.6,30.9 20.6,32.4 15,32.4 	"/>
	<polygon class="st0" points="42.1,32.4 42.1,25.6 47.6,25.6 47.6,27.1 43.8,27.1 43.8,28.3 47.5,28.3 47.5,29.7 43.8,29.7 
		43.8,30.9 47.6,30.9 47.6,32.4 42.1,32.4 	"/>
	<polygon class="st0" points="20.8,32.4 23.5,29 20.7,25.6 22.8,25.6 24.5,27.7 26.1,25.6 28.2,25.6 25.5,29 28.2,32.4 26,32.4 
		24.4,30.3 22.9,32.4 20.8,32.4 	"/>
	<path class="st0" d="M28.4,25.6v6.8h1.7v-2.1h1.8c1.5,0,2.7-0.8,2.7-2.4c0-1.3-0.9-2.3-2.4-2.3H28.4L28.4,25.6z M30.1,27.1H32
		c0.5,0,0.8,0.3,0.8,0.8c0,0.5-0.3,0.8-0.8,0.8h-1.9V27.1L30.1,27.1L30.1,27.1z"/>
	<path class="st0" d="M35.3,25.6v6.8H37V30h0.7l2,2.4h2.1l-2.2-2.5c0.9-0.1,1.9-0.9,1.9-2.1c0-1.4-1.1-2.2-2.4-2.2L35.3,25.6
		L35.3,25.6L35.3,25.6z M37,27.1h1.9c0.5,0,0.8,0.4,0.8,0.7c0,0.5-0.4,0.7-0.8,0.7h-2V27.1L37,27.1z"/>
	<path class="st0" d="M48.4,32.4v-1.5h3.4c0.5,0,0.7-0.3,0.7-0.6c0-0.3-0.2-0.6-0.7-0.6h-1.5c-1.3,0-2.1-0.8-2.1-2
		c0-1.1,0.7-2.1,2.7-2.1h3.3l-0.7,1.5h-2.9c-0.5,0-0.7,0.3-0.7,0.6c0,0.3,0.2,0.6,0.6,0.6h1.6c1.5,0,2.1,0.8,2.1,1.9
		c0,1.2-0.7,2.2-2.2,2.2L48.4,32.4L48.4,32.4z"/>
	<path class="st0" d="M54.6,32.4v-1.5h3.2c0.5,0,0.7-0.3,0.7-0.6c0-0.3-0.2-0.6-0.7-0.6h-1.4c-1.3,0-2.1-0.8-2.1-2
		c0-1.1,0.7-2.1,2.7-2.1h3.2l-0.7,1.5h-2.8c-0.5,0-0.7,0.3-0.7,0.6c0,0.3,0.2,0.6,0.6,0.6h1.5c1.5,0,2.1,0.8,2.1,1.9
		c0,1.2-0.7,2.2-2.2,2.2L54.6,32.4L54.6,32.4z"/>
</g>
</svg>
