<?xml version="1.0" encoding="utf-8"?>
<!-- Generator: Adobe Illustrator 24.2.3, SVG Export Plug-In . SVG Version: 6.00 Build 0)  -->
<svg version="1.1" id="Layer_1" xmlns="http://www.w3.org/2000/svg" xmlns:xlink="http://www.w3.org/1999/xlink" x="0px" y="0px"
	 viewBox="0 0 30.2 26.8" style="enable-background:new 0 0 30.2 26.8;" xml:space="preserve">
<style type="text/css">
	.st0{clip-path:url(#SVGID_2_);fill:#373736;}
	.st1{clip-path:url(#SVGID_4_);fill:#373736;}
</style>
<g>
	<g>
		<defs>
			<path id="SVGID_1_" d="M21.8,6h-15l2.3,4.8c0.5,1,1.9,1.6,3.1,1.3l8.8-2.5c0.2-0.1,0.5-0.3,0.5-0.5L21.8,6z M22.8,4.4
				c0.3,0,0.5,0.1,0.7,0.3c0.2,0.2,0.2,0.4,0.2,0.6l-0.5,4c-0.1,0.8-0.9,1.6-1.7,1.9l-8.8,2.5c-0.4,0.1-0.8,0.2-1.2,0.2
				c-1.7,0-3.3-0.9-4-2.4L4.9,6h0C4.4,6,4,5.7,4,5.2c0-0.4,0.4-0.8,0.9-0.8H22.8z"/>
		</defs>
		<clipPath id="SVGID_2_">
			<use xlink:href="#SVGID_1_"  style="overflow:visible;"/>
		</clipPath>
		<rect x="3" y="3.4" class="st0" width="21.7" height="11.4"/>
	</g>
	<g>
		<defs>
			<path id="SVGID_3_" d="M20.2,14.5l-2.9,0.9l2.3,5.3h0.5V14.5z M5.7,15.5c-1.4,0-2.6,1.2-2.6,2.6s1.2,2.6,2.6,2.6
				c1.4,0,2.6-1.1,2.6-2.5L6,18.9c-0.1,0-0.2,0-0.3,0c-0.4,0-0.7-0.2-0.8-0.6c-0.1-0.4,0.1-0.9,0.6-1.1l2.4-0.7
				C7.4,15.9,6.6,15.5,5.7,15.5z M27.7,10.5c0.2-0.1,0.4,0,0.6,0.1c0.2,0.1,0.3,0.3,0.4,0.5l0,0l0,0c0.1,0.4-0.1,0.9-0.6,1.1
				L21.9,14v7.1c0,0.7-0.6,1.3-1.3,1.3h-1c-0.6,0-1.2-0.4-1.4-0.9l-2.5-5.6L10,17.7c0,0.1,0,0.3,0,0.4c0,2.4-1.9,4.3-4.3,4.3
				s-4.3-1.9-4.3-4.3c0-2.4,1.9-4.3,4.3-4.3c1.6,0,3,0.9,3.8,2.2L27.7,10.5z"/>
		</defs>
		<clipPath id="SVGID_4_">
			<use xlink:href="#SVGID_3_"  style="overflow:visible;"/>
		</clipPath>
		<rect x="0.4" y="9.4" class="st1" width="29.5" height="14"/>
	</g>
</g>
</svg>
