<?xml version="1.0" encoding="utf-8"?>
<!-- Generator: Adobe Illustrator 24.2.3, SVG Export Plug-In . SVG Version: 6.00 Build 0)  -->
<svg version="1.1" id="Layer_1" xmlns="http://www.w3.org/2000/svg" xmlns:xlink="http://www.w3.org/1999/xlink" x="0px" y="0px"
	 viewBox="0 0 26.8 26.8" style="enable-background:new 0 0 26.8 26.8;" xml:space="preserve">
<style type="text/css">
	.st0{clip-path:url(#SVGID_2_);enable-background:new    ;}
	.st1{clip-path:url(#SVGID_4_);}
	.st2{clip-path:url(#SVGID_6_);}
	.st3{clip-path:url(#SVGID_8_);fill:#FFFFFF;}
</style>
<g>
	<defs>
		<rect id="SVGID_1_" x="4.4" y="4.4" width="18" height="18"/>
	</defs>
	<clipPath id="SVGID_2_">
		<use xlink:href="#SVGID_1_"  style="overflow:visible;"/>
	</clipPath>
	<g class="st0">
		<g>
			<defs>
				<rect id="SVGID_3_" x="4.4" y="4.4" width="18" height="19"/>
			</defs>
			<clipPath id="SVGID_4_">
				<use xlink:href="#SVGID_3_"  style="overflow:visible;"/>
			</clipPath>
			<g class="st1">
				<defs>
					<path id="SVGID_5_" d="M20,4.4H6.8c-1.3,0-2.4,1.1-2.4,2.4V20c0,1.3,1.1,2.4,2.4,2.4h6.5l0-6.4h-1.7c-0.2,0-0.4-0.2-0.4-0.4
						l0-2.1c0-0.2,0.2-0.4,0.4-0.4h1.7v-2c0-2.3,1.4-3.6,3.5-3.6h1.7c0.2,0,0.4,0.2,0.4,0.4v1.7c0,0.2-0.2,0.4-0.4,0.4l-1,0
						c-1.1,0-1.3,0.5-1.3,1.3v1.7h2.5c0.2,0,0.4,0.2,0.4,0.4l-0.2,2.1c0,0.2-0.2,0.3-0.4,0.3h-2.2l0,6.4H20c1.3,0,2.4-1.1,2.4-2.4
						V6.8C22.4,5.5,21.3,4.4,20,4.4"/>
				</defs>
				<clipPath id="SVGID_6_">
					<use xlink:href="#SVGID_5_"  style="overflow:visible;"/>
				</clipPath>
				<g class="st2">
					<defs>
						<rect id="SVGID_7_" x="4.4" y="4.4" width="18" height="18"/>
					</defs>
					<clipPath id="SVGID_8_">
						<use xlink:href="#SVGID_7_"  style="overflow:visible;"/>
					</clipPath>
					<rect x="3.4" y="3.4" class="st3" width="20" height="20"/>
				</g>
			</g>
		</g>
	</g>
</g>
</svg>
