<?xml version="1.0" encoding="utf-8"?>
<!-- Generator: Adobe Illustrator 24.2.3, SVG Export Plug-In . SVG Version: 6.00 Build 0)  -->
<svg version="1.1" id="Layer_1" xmlns="http://www.w3.org/2000/svg" xmlns:xlink="http://www.w3.org/1999/xlink" x="0px" y="0px"
	 viewBox="0 0 128.8 180.8" style="enable-background:new 0 0 128.8 180.8;" xml:space="preserve">
<style type="text/css">
	.st0{fill:#221E20;}
	.st1{fill:#D9D9D9;}
	.st2{fill:#003A70;}
	.st3{fill:#FFFFFF;}
	.st4{fill:#3C3C3B;}
</style>
<g>
	<g>
		<g>
			<rect x="5.4" y="4.8" class="st0" width="117.9" height="171.1"/>
			<rect x="5.4" y="4.8" class="st1" width="117.9" height="171.1"/>
			<path class="st2" d="M50.7,4.9c0,6.8,5.4,16.3,11.1,24.3c3.2,4.5,14.9,17.5,17.3,20.2c6.1,6.8,14.5,20.3-2.5,32.1
				c-19.4,11.6-21.2,25.5-11.4,36.3c9.8,10.8-15.9,22.3-22.9,35.3H5.3V4.8L50.7,4.9z"/>
			<path class="st3" d="M1.4,0.5v179.7h125.9V0.5H1.4z M52.4,136.5c-4.5,4.1-9.2,8.2-12.3,12.8H8.7V8.1h38.7
				c1,6.1,4.9,13.9,11.5,23.2c3.6,5.1,17,19.9,17.6,20.5c3.3,3.7,7.2,9.3,6.5,15.1c-0.5,4.1-3.3,7.9-8.3,11.4
				c-11,6.6-17.5,14.5-18.7,22.9c-1,6.6-1.1,10.9,4.5,16.5C67.1,124.5,52.4,136.5,52.4,136.5z M120.1,172.7H8.7v-16h35.7l1-1.9
				c2.3-4.2,7.2-8.6,11.9-12.8c6.9-6.1,15.8-11.9,16.1-18.6c0.2-2.9-0.9-5.7-3.1-8.2c-3.8-4.2-5.4-8.5-4.7-12.9
				c0.9-6.1,3.8-12.3,12.9-17.7l0.2-0.1c6.9-4.8,11.6-10.4,12.3-16.7c1-8.5-4-16-8.4-20.9C78.9,42.7,69.2,31,66.4,27.1
				c-5.4-7.6-8.8-14.2-10-19h63.6V172.7z"/>
			<path class="st0" d="M0,0v180.8h128.8V0H0z M125.2,177.2H3.6V3.6h121.7V177.2z"/>
		</g>
	</g>
	<g>
		<g>
			<path class="st4" d="M13.8,168.8l1-0.3V161l-1-0.3v-0.3H20l0.1,2.5h-0.3c-0.3-0.8-0.7-1.5-1.2-2h-2.5v3.5h1.3
				c0.5-0.3,0.8-0.9,0.9-1.6h0.3v3.6h-0.3c-0.1-0.7-0.5-1.3-0.9-1.6h-1.3v3.6l1.1,0.3v0.3h-3.5V168.8z"/>
			<path class="st4" d="M21.3,168.8l1-0.3V161l-1-0.3v-0.3h6.3l0.1,2.4h-0.3c-0.3-0.8-0.7-1.4-1.2-1.9h-2.5v3.5H25
				c0.5-0.3,0.8-0.9,0.9-1.6h0.3v3.6h-0.3c-0.1-0.7-0.5-1.3-0.9-1.6h-1.3v3.8h2.7c0.5-0.6,1-1.6,1.3-2.3H28l-0.2,2.8h-6.5V168.8z"/>
			<path class="st4" d="M29.4,168.8l1-0.3V161l-1-0.3v-0.3h3.9c1.1,0,2.7,0.5,2.7,2.2c0,1.4-1,1.9-1.9,2.2l2.3,3.8l0.8,0.3v0.3h-3.2
				v-0.3l0.8-0.3l-2.1-3.5h-1v3.5l1,0.3v0.3h-3.3V168.8z M32.5,164.6c1.2,0,2-0.4,2-1.9c0-1.4-0.8-1.8-1.7-1.8h-1.1v3.7H32.5z"/>
			<path class="st4" d="M38.1,168.8l1-0.3V161l-1-0.3v-0.3H42c1.1,0,2.7,0.5,2.7,2.2c0,1.4-1,1.9-1.9,2.2l2.3,3.8l0.8,0.3v0.3h-3.2
				v-0.3l0.8-0.3l-2.1-3.5h-1v3.5l1,0.3v0.3h-3.3V168.8z M41.2,164.6c1.2,0,2-0.4,2-1.9c0-1.4-0.8-1.8-1.7-1.8h-1.1v3.7H41.2z"/>
			<path class="st4" d="M46.8,168.8l1-0.3V161l-1-0.3v-0.3h6.3l0.1,2.4h-0.3c-0.3-0.8-0.7-1.4-1.2-1.9h-2.5v3.5h1.3
				c0.5-0.3,0.8-0.9,0.9-1.6h0.3v3.6h-0.3c-0.1-0.7-0.5-1.3-0.9-1.6h-1.3v3.8h2.7c0.5-0.6,1-1.6,1.3-2.3h0.3l-0.2,2.8h-6.5V168.8z"
				/>
			<path class="st4" d="M55,168.8l1-0.3V161l-1-0.3v-0.3h3.7c1.1,0,2.9,0.4,2.9,2.3c0,2-1.6,2.6-3.1,2.6c-0.4,0-0.8,0-1.1-0.1v3.3
				l1,0.3v0.3H55V168.8z M60.1,162.8c0-1.4-0.8-1.9-1.6-1.9h-1.1v3.8c0.4,0.1,0.6,0.1,1,0.1C59.5,164.8,60.1,164.3,60.1,162.8z"/>
			<path class="st4" d="M61.3,168.8l0.9-0.4l2.7-8.1h0.6l2.7,8.1l0.9,0.3v0.3h-3.3v-0.3l0.9-0.3l-0.7-2.2h-2.7l-0.7,2.2l1,0.4v0.3
				h-2.4V168.8z M65.9,165.9l-1.2-3.6l-1.2,3.6H65.9z"/>
			<path class="st4" d="M69.8,164.8c0-2.2,1.3-4.5,3.7-4.5c1.1,0,1.9,0.3,2.3,0.5v2.1h-0.3l-0.4-1.1c-0.5-0.7-0.8-1-1.6-1.1
				c-0.9,0-1.6,0.6-2,1.7c-0.1,0.5-0.3,1.1-0.3,2.3c0,1.2,0.2,2,0.3,2.3c0.3,1,0.9,1.7,1.9,1.7c0.9-0.1,1.2-0.5,1.6-1.1l0.5-1.1h0.3
				v2.1c-0.4,0.2-1.8,0.6-2.4,0.6C71,169.3,69.8,167.1,69.8,164.8z"/>
			<path class="st4" d="M77.7,168.8l1-0.3V161l-1-0.3v-0.3h3.4v0.3l-1,0.3v7.5l1,0.3v0.3h-3.4V168.8z"/>
			<path class="st4" d="M82.4,168.8l1-0.3V161l-1-0.3v-0.3h6.2l0.1,2.5h-0.3c-0.3-0.8-0.7-1.5-1.2-2h-2.5v3.5H86
				c0.5-0.3,0.8-0.9,0.9-1.6h0.3v3.6h-0.3c-0.1-0.7-0.5-1.3-0.9-1.6h-1.3v3.6l1.1,0.3v0.3h-3.5V168.8z"/>
			<path class="st4" d="M90,168.8l1-0.3V161l-1-0.3v-0.3h3.4v0.3l-1,0.3v7.5l1,0.3v0.3H90V168.8z"/>
			<path class="st4" d="M94.7,164.8c0-2.2,1.3-4.5,3.7-4.5c1.1,0,1.9,0.3,2.3,0.5v2.1h-0.3l-0.4-1.1c-0.5-0.7-0.8-1-1.6-1.1
				c-0.9,0-1.6,0.6-2,1.7c-0.1,0.5-0.3,1.1-0.3,2.3c0,1.2,0.2,2,0.3,2.3c0.3,1,0.9,1.7,1.9,1.7c0.9-0.1,1.2-0.5,1.6-1.1l0.5-1.1h0.3
				v2.1c-0.4,0.2-1.8,0.6-2.4,0.6C96,169.3,94.7,167.1,94.7,164.8z"/>
			<path class="st4" d="M102.4,164.8c0-2.4,1.2-4.5,3.6-4.5c2.2,0,3.6,2,3.6,4.5c0,2.6-1.4,4.5-3.6,4.5
				C103.6,169.3,102.4,167.1,102.4,164.8z M107.8,167.3c0.2-0.5,0.3-1.2,0.3-2.5c0-1.2-0.1-2-0.3-2.5c-0.3-0.9-0.8-1.6-1.8-1.6
				c-1,0-1.5,0.7-1.8,1.6c-0.2,0.5-0.3,1.2-0.3,2.5c0,1.3,0.1,1.9,0.3,2.5c0.3,0.9,0.8,1.6,1.8,1.6
				C106.9,168.8,107.5,168.1,107.8,167.3z"/>
		</g>
		<g>
			<path class="st4" d="M111,167.2c0-1.1,0.9-2,2-2c1.1,0,2,0.9,2,2c0,1.1-0.9,2-2,2C111.9,169.2,111,168.3,111,167.2z M114.6,167.2
				c0-0.9-0.7-1.6-1.5-1.6c-0.8,0-1.5,0.7-1.5,1.6s0.7,1.6,1.5,1.6C113.9,168.8,114.6,168.2,114.6,167.2z M112.3,166.1h0.8
				c0.5,0,0.8,0.2,0.8,0.7c0,0.4-0.2,0.6-0.6,0.6l0.6,1h-0.4l-0.6-1h-0.3v1h-0.4V166.1z M112.7,167.1h0.4c0.2,0,0.5,0,0.5-0.3
				c0-0.3-0.2-0.3-0.5-0.3h-0.4V167.1z"/>
		</g>
	</g>
</g>
</svg>
