<?xml version="1.0" encoding="utf-8"?>
<!-- Generator: Adobe Illustrator 24.2.3, SVG Export Plug-In . SVG Version: 6.00 Build 0)  -->
<svg version="1.1" id="Layer_1" xmlns="http://www.w3.org/2000/svg" xmlns:xlink="http://www.w3.org/1999/xlink" x="0px" y="0px"
	 viewBox="0 0 26.8 26.8" style="enable-background:new 0 0 26.8 26.8;" xml:space="preserve">
<style type="text/css">
	.st0{clip-path:url(#SVGID_2_);}
	.st1{clip-path:url(#SVGID_4_);}
</style>
<g>
	<g>
		<defs>
			<path id="SVGID_1_" d="M12.1,6.2c-3.2,0-5.9,2.6-5.9,5.8s2.6,5.9,5.9,5.9s5.8-2.6,5.8-5.9S15.3,6.2,12.1,6.2z M12.1,4.4
				c4.2,0,7.7,3.4,7.7,7.6s-3.4,7.7-7.7,7.7s-7.7-3.4-7.7-7.7S7.8,4.4,12.1,4.4z"/>
		</defs>
		<clipPath id="SVGID_2_">
			<use xlink:href="#SVGID_1_"  style="overflow:visible;"/>
		</clipPath>
		<rect x="3.4" y="3.4" class="st0" width="17.3" height="17.3"/>
	</g>
	<g>
		<defs>
			<path id="SVGID_3_" d="M22.1,20.9l-4.7-4.7c-0.4-0.4-0.9-0.4-1.3,0c-0.4,0.4-0.4,0.9,0,1.3l4.7,4.7c0.4,0.4,0.9,0.4,1.3,0
				C22.5,21.8,22.5,21.2,22.1,20.9z"/>
		</defs>
		<clipPath id="SVGID_4_">
			<use xlink:href="#SVGID_3_"  style="overflow:visible;"/>
		</clipPath>
		<rect x="14.8" y="14.8" class="st1" width="8.7" height="8.7"/>
	</g>
</g>
</svg>
