<?xml version="1.0" encoding="utf-8"?>
<!-- Generator: Adobe Illustrator 24.2.3, SVG Export Plug-In . SVG Version: 6.00 Build 0)  -->
<svg version="1.1" id="Layer_1" xmlns="http://www.w3.org/2000/svg" xmlns:xlink="http://www.w3.org/1999/xlink" x="0px" y="0px"
	 viewBox="0 0 58 45" style="enable-background:new 0 0 58 45;" xml:space="preserve">
<style type="text/css">
	.st0{fill:#B6B6B6;}
	.st1{fill:#888888;}
	.st2{fill:#A2A2A2;}
</style>
<g>
	<g>
		<path class="st0" d="M12.5,38c-0.1-0.1-0.3-0.3-0.5-0.3c-0.2-0.1-0.4-0.1-0.6-0.1c-0.1,0-0.3,0-0.4,0c-0.1,0-0.3,0.1-0.4,0.1
			c-0.1,0.1-0.3,0.1-0.4,0.2c-0.1,0.1-0.2,0.2-0.3,0.4c-0.1-0.2-0.3-0.4-0.6-0.5c-0.2-0.1-0.5-0.2-0.8-0.2c-0.1,0-0.2,0-0.3,0
			c-0.1,0-0.2,0.1-0.3,0.1c-0.1,0-0.2,0.1-0.3,0.2c-0.1,0.1-0.2,0.2-0.3,0.3v-0.5H6.4v4.1h0.9v-2.3c0-0.2,0-0.3,0.1-0.5
			c0.1-0.1,0.1-0.2,0.2-0.3c0.1-0.1,0.2-0.2,0.3-0.2c0.1,0,0.3-0.1,0.4-0.1c0.3,0,0.5,0.1,0.7,0.3c0.2,0.2,0.2,0.5,0.2,0.8v2.3h0.9
			v-2.3c0-0.2,0-0.3,0.1-0.5c0.1-0.1,0.1-0.2,0.2-0.3c0.1-0.1,0.2-0.2,0.3-0.2c0.1,0,0.3-0.1,0.4-0.1c0.3,0,0.5,0.1,0.7,0.3
			c0.2,0.2,0.2,0.5,0.2,0.8v2.3H13v-2.6c0-0.2,0-0.5-0.1-0.7C12.8,38.3,12.6,38.2,12.5,38z"/>
		<path class="st0" d="M17.1,38.2c-0.1-0.2-0.3-0.3-0.5-0.4c-0.2-0.1-0.5-0.2-0.8-0.2c-0.3,0-0.6,0.1-0.8,0.2
			c-0.2,0.1-0.5,0.3-0.7,0.4c-0.2,0.2-0.3,0.4-0.4,0.7c-0.1,0.3-0.2,0.6-0.2,0.9c0,0.3,0.1,0.6,0.2,0.9c0.1,0.3,0.3,0.5,0.4,0.7
			c0.2,0.2,0.4,0.3,0.7,0.4c0.2,0.1,0.5,0.2,0.8,0.2c0.3,0,0.5-0.1,0.8-0.2c0.2-0.1,0.4-0.3,0.5-0.4v0.5H18v-4.1h-0.9V38.2z
			 M17.1,40.2c-0.1,0.2-0.1,0.3-0.3,0.4c-0.1,0.1-0.2,0.2-0.4,0.3C16.3,41,16.1,41,15.9,41c-0.2,0-0.4,0-0.5-0.1
			c-0.2-0.1-0.3-0.2-0.4-0.3c-0.1-0.1-0.2-0.3-0.2-0.4c-0.1-0.2-0.1-0.3-0.1-0.5c0-0.2,0-0.3,0.1-0.5c0.1-0.2,0.1-0.3,0.2-0.4
			c0.1-0.1,0.2-0.2,0.4-0.3c0.2-0.1,0.3-0.1,0.5-0.1c0.2,0,0.4,0,0.5,0.1c0.2,0.1,0.3,0.2,0.4,0.3c0.1,0.1,0.2,0.3,0.3,0.4
			c0.1,0.2,0.1,0.3,0.1,0.5C17.2,39.9,17.1,40.1,17.1,40.2z"/>
		<path class="st0" d="M22.1,39.7c-0.3-0.2-0.6-0.3-1-0.4l-0.4-0.1c-0.1,0-0.2,0-0.3,0c-0.1,0-0.2,0-0.2-0.1c-0.1,0-0.1-0.1-0.1-0.1
			c0,0-0.1-0.1-0.1-0.2c0-0.1,0.1-0.3,0.2-0.4c0.1-0.1,0.3-0.1,0.6-0.1c0.1,0,0.3,0,0.4,0c0.1,0,0.2,0.1,0.4,0.1
			c0.1,0,0.2,0.1,0.3,0.1c0.1,0,0.2,0.1,0.2,0.1l0.4-0.7c-0.2-0.1-0.5-0.2-0.7-0.3c-0.3-0.1-0.6-0.1-0.9-0.1c-0.3,0-0.5,0-0.7,0.1
			c-0.2,0.1-0.4,0.1-0.5,0.3c-0.1,0.1-0.3,0.3-0.3,0.4c-0.1,0.2-0.1,0.3-0.1,0.5c0,0.3,0.1,0.6,0.4,0.8c0.2,0.2,0.6,0.3,1,0.4
			l0.4,0.1c0.2,0,0.4,0.1,0.5,0.2c0.1,0.1,0.2,0.2,0.2,0.3c0,0.2-0.1,0.3-0.2,0.4c-0.2,0.1-0.4,0.1-0.7,0.1c-0.2,0-0.3,0-0.5,0
			C20,41,19.9,41,19.8,41c-0.1,0-0.2-0.1-0.3-0.1c-0.1,0-0.2-0.1-0.2-0.2l-0.4,0.7c0.1,0.1,0.3,0.2,0.5,0.3c0.2,0.1,0.3,0.1,0.5,0.2
			c0.2,0,0.3,0.1,0.4,0.1c0.1,0,0.3,0,0.4,0c0.3,0,0.6,0,0.8-0.1c0.2-0.1,0.4-0.2,0.6-0.3c0.2-0.1,0.3-0.3,0.4-0.4s0.1-0.3,0.1-0.5
			C22.5,40.2,22.4,39.9,22.1,39.7z"/>
		<path class="st0" d="M30.5,38.1c-0.2-0.2-0.4-0.3-0.6-0.4c-0.2-0.1-0.5-0.2-0.8-0.2c-0.3,0-0.6,0.1-0.8,0.2
			c-0.3,0.1-0.5,0.3-0.6,0.4c-0.2,0.2-0.3,0.4-0.4,0.7c-0.1,0.3-0.1,0.6-0.1,0.9c0,0.3,0.1,0.6,0.2,0.9c0.1,0.3,0.2,0.5,0.4,0.7
			c0.2,0.2,0.4,0.3,0.7,0.4c0.3,0.1,0.5,0.2,0.8,0.2c0.3,0,0.6,0,0.9-0.1c0.3-0.1,0.5-0.2,0.8-0.4l-0.4-0.6
			c-0.2,0.1-0.4,0.2-0.6,0.3c-0.2,0.1-0.4,0.1-0.6,0.1c-0.1,0-0.3,0-0.4-0.1c-0.1,0-0.3-0.1-0.4-0.2c-0.1-0.1-0.2-0.2-0.3-0.3
			C28.1,40.4,28,40.2,28,40h3c0-0.1,0-0.1,0-0.2c0-0.1,0-0.1,0-0.2c0-0.3,0-0.6-0.1-0.9C30.8,38.6,30.7,38.3,30.5,38.1z M28,39.4
			c0-0.1,0.1-0.3,0.1-0.4c0.1-0.1,0.1-0.2,0.2-0.3c0.1-0.1,0.2-0.2,0.3-0.2c0.1,0,0.3-0.1,0.4-0.1c0.3,0,0.5,0.1,0.7,0.3
			c0.2,0.2,0.3,0.4,0.3,0.7H28z"/>
		<path class="st0" d="M42.4,38.2c-0.1-0.2-0.3-0.3-0.5-0.4c-0.2-0.1-0.5-0.2-0.8-0.2c-0.3,0-0.6,0.1-0.8,0.2
			c-0.2,0.1-0.5,0.3-0.7,0.4c-0.2,0.2-0.3,0.4-0.4,0.7c-0.1,0.3-0.2,0.6-0.2,0.9c0,0.3,0.1,0.6,0.2,0.9c0.1,0.3,0.3,0.5,0.4,0.7
			c0.2,0.2,0.4,0.3,0.7,0.4c0.2,0.1,0.5,0.2,0.8,0.2c0.3,0,0.5-0.1,0.8-0.2c0.2-0.1,0.4-0.3,0.5-0.4v0.5h0.9v-4.1h-0.9V38.2z
			 M42.4,40.2c-0.1,0.2-0.1,0.3-0.3,0.4c-0.1,0.1-0.2,0.2-0.4,0.3C41.6,41,41.4,41,41.2,41c-0.2,0-0.4,0-0.5-0.1
			c-0.2-0.1-0.3-0.2-0.4-0.3c-0.1-0.1-0.2-0.3-0.2-0.4C40,40.1,40,39.9,40,39.7c0-0.2,0-0.3,0.1-0.5c0.1-0.2,0.1-0.3,0.2-0.4
			c0.1-0.1,0.2-0.2,0.4-0.3c0.2-0.1,0.3-0.1,0.5-0.1c0.2,0,0.4,0,0.5,0.1c0.2,0.1,0.3,0.2,0.4,0.3c0.1,0.1,0.2,0.3,0.3,0.4
			c0.1,0.2,0.1,0.3,0.1,0.5C42.4,39.9,42.4,40.1,42.4,40.2z"/>
		<path class="st0" d="M25.9,40.9C25.8,41,25.7,41,25.5,41c-0.1,0-0.2,0-0.3,0c-0.1,0-0.1-0.1-0.2-0.1c-0.1-0.1-0.1-0.1-0.1-0.2
			s-0.1-0.2-0.1-0.4v-1.8h1.4v-0.8h-1.4v-1.2H24v1.2h-0.8v0.8H24v1.8c0,0.5,0.1,0.9,0.4,1.2c0.3,0.3,0.6,0.4,1.1,0.4
			c0.3,0,0.5,0,0.7-0.1c0.1-0.1,0.3-0.1,0.4-0.2l-0.3-0.7C26.1,40.9,26,40.9,25.9,40.9z"/>
		<path class="st0" d="M34,37.6c-0.3,0-0.5,0-0.7,0.1c-0.2,0.1-0.4,0.3-0.5,0.5v-0.5H32v4.1h0.8v-2.3c0-0.2,0-0.3,0.1-0.5
			c0-0.1,0.1-0.3,0.2-0.3c0.1-0.1,0.2-0.2,0.3-0.2c0.1,0,0.3-0.1,0.4-0.1c0.1,0,0.2,0,0.4,0c0.1,0,0.1,0,0.2,0l0.3-0.9
			c-0.1,0-0.1,0-0.2-0.1C34.3,37.6,34.2,37.6,34,37.6z"/>
		<path class="st0" d="M46.5,37.6c-0.3,0-0.5,0-0.7,0.1c-0.2,0.1-0.4,0.3-0.5,0.5v-0.5h-0.8v4.1h0.8v-2.3c0-0.2,0-0.3,0.1-0.5
			c0-0.1,0.1-0.3,0.2-0.3c0.1-0.1,0.2-0.2,0.3-0.2c0.1,0,0.3-0.1,0.4-0.1c0.1,0,0.2,0,0.4,0c0.1,0,0.1,0,0.2,0l0.3-0.9
			c-0.1,0-0.1,0-0.2-0.1C46.7,37.6,46.6,37.6,46.5,37.6z"/>
		<path class="st0" d="M50.7,36v2.2c-0.1-0.2-0.3-0.3-0.5-0.4c-0.2-0.1-0.5-0.2-0.8-0.2c-0.3,0-0.6,0.1-0.8,0.2
			c-0.2,0.1-0.5,0.3-0.7,0.4c-0.2,0.2-0.3,0.4-0.4,0.7c-0.1,0.3-0.2,0.6-0.2,0.9c0,0.3,0.1,0.6,0.2,0.9c0.1,0.3,0.3,0.5,0.4,0.7
			c0.2,0.2,0.4,0.3,0.7,0.4c0.2,0.1,0.5,0.2,0.8,0.2c0.3,0,0.5-0.1,0.8-0.2c0.2-0.1,0.4-0.3,0.5-0.4v0.5h0.9V36H50.7z M50.6,40.2
			c-0.1,0.2-0.1,0.3-0.3,0.4c-0.1,0.1-0.2,0.2-0.4,0.3C49.8,41,49.7,41,49.5,41c-0.2,0-0.4,0-0.5-0.1c-0.2-0.1-0.3-0.2-0.4-0.3
			c-0.1-0.1-0.2-0.3-0.2-0.4c-0.1-0.2-0.1-0.3-0.1-0.5c0-0.2,0-0.3,0.1-0.5c0.1-0.2,0.1-0.3,0.2-0.4c0.1-0.1,0.2-0.2,0.4-0.3
			c0.2-0.1,0.3-0.1,0.5-0.1c0.2,0,0.4,0,0.5,0.1c0.2,0.1,0.3,0.2,0.4,0.3c0.1,0.1,0.2,0.3,0.3,0.4c0.1,0.2,0.1,0.3,0.1,0.5
			C50.7,39.9,50.7,40.1,50.6,40.2z"/>
		<path class="st0" d="M36.2,38.8c0.1-0.1,0.2-0.2,0.4-0.3c0.2-0.1,0.3-0.1,0.5-0.1v0c0.2,0,0.4,0,0.6,0.1c0.2,0.1,0.3,0.1,0.4,0.3
			l0.4-0.7c-0.2-0.1-0.3-0.2-0.5-0.3c-0.3-0.1-0.6-0.2-0.9-0.2c-0.3,0-0.6,0.1-0.9,0.2c-0.3,0.1-0.5,0.3-0.7,0.5
			c-0.2,0.2-0.3,0.4-0.5,0.7c-0.1,0.3-0.2,0.5-0.2,0.9c0,0.3,0.1,0.6,0.2,0.9c0.1,0.3,0.3,0.5,0.5,0.7c0.2,0.2,0.4,0.3,0.7,0.5
			c0.3,0.1,0.6,0.2,0.9,0.2c0.3,0,0.6-0.1,0.9-0.2c0.2-0.1,0.4-0.2,0.5-0.3l-0.4-0.7c-0.1,0.1-0.3,0.2-0.4,0.3
			C37.5,41,37.3,41,37.1,41v0c-0.2,0-0.4,0-0.5-0.1c-0.2-0.1-0.3-0.2-0.4-0.3c-0.1-0.1-0.2-0.3-0.3-0.4c-0.1-0.2-0.1-0.3-0.1-0.5
			c0-0.2,0-0.4,0.1-0.5C36,39,36.1,38.9,36.2,38.8z"/>
	</g>
	<g>
		<path class="st0" d="M53.4,41.2c0.1,0,0.1,0,0.2,0c0.1,0,0.1,0.1,0.1,0.1c0,0,0.1,0.1,0.1,0.1c0,0.1,0,0.1,0,0.2
			c0,0.1,0,0.1,0,0.2c0,0.1-0.1,0.1-0.1,0.1c0,0-0.1,0.1-0.1,0.1c-0.1,0-0.1,0-0.2,0c-0.1,0-0.1,0-0.2,0c-0.1,0-0.1-0.1-0.1-0.1
			c0,0-0.1-0.1-0.1-0.1c0-0.1,0-0.1,0-0.2c0-0.1,0-0.1,0-0.2c0-0.1,0.1-0.1,0.1-0.1c0,0,0.1-0.1,0.1-0.1
			C53.3,41.2,53.4,41.2,53.4,41.2z M53.4,41.9c0,0,0.1,0,0.1,0c0,0,0.1,0,0.1-0.1c0,0,0-0.1,0.1-0.1c0,0,0-0.1,0-0.1
			c0,0,0-0.1,0-0.1c0,0,0-0.1-0.1-0.1c0,0-0.1,0-0.1-0.1c0,0-0.1,0-0.1,0c0,0-0.1,0-0.1,0c0,0-0.1,0-0.1,0.1c0,0,0,0.1-0.1,0.1
			c0,0,0,0.1,0,0.1c0,0,0,0.1,0,0.1c0,0,0,0.1,0.1,0.1c0,0,0.1,0,0.1,0.1C53.4,41.9,53.4,41.9,53.4,41.9z M53.5,41.4
			c0.1,0,0.1,0,0.1,0c0,0,0,0.1,0,0.1c0,0,0,0.1,0,0.1c0,0,0,0-0.1,0l0.1,0.1h-0.1l-0.1-0.1h0v0.1h-0.1v-0.4H53.5z M53.4,41.5
			L53.4,41.5L53.4,41.5c0.1,0.1,0.1,0.1,0.1,0.1c0,0,0,0,0,0c0,0,0,0,0,0C53.5,41.5,53.5,41.5,53.4,41.5L53.4,41.5z"/>
	</g>
	<g>
		<path class="st1" d="M23.1,18.5c0-4.9,2.3-9.3,5.9-12.1C26.3,4.3,23,3,19.4,3C10.8,3,3.9,9.9,3.9,18.5s6.9,15.5,15.5,15.5
			c3.6,0,7-1.3,9.6-3.3C25.4,27.8,23.1,23.4,23.1,18.5z"/>
		<ellipse class="st2" cx="29" cy="18.5" rx="5.9" ry="12.1"/>
		<path class="st0" d="M53,26.8v-0.5h-0.2v-0.1h0.5v0.1h-0.2v0.5H53z M54,26.8v-0.4l-0.1,0.3h-0.1l-0.1-0.3v0.4h-0.1v-0.6h0.2
			l0.1,0.4l0.1-0.4h0.2v0.6H54z"/>
		<path class="st0" d="M38.6,3c-3.6,0-7,1.3-9.6,3.3c3.6,2.8,5.9,7.2,5.9,12.1s-2.3,9.3-5.9,12.1c2.6,2.1,6,3.3,9.6,3.3
			C47.1,33.9,54,27,54,18.5S47.1,3,38.6,3z"/>
	</g>
</g>
</svg>
