<?xml version="1.0" encoding="utf-8"?>
<!-- Generator: Adobe Illustrator 24.2.3, SVG Export Plug-In . SVG Version: 6.00 Build 0)  -->
<svg version="1.1" id="Layer_1" xmlns="http://www.w3.org/2000/svg" xmlns:xlink="http://www.w3.org/1999/xlink" x="0px" y="0px"
	 viewBox="0 0 26.8 26.8" style="enable-background:new 0 0 26.8 26.8;" xml:space="preserve">
<style type="text/css">
	.st0{clip-path:url(#SVGID_2_);fill:#373736;}
</style>
<g>
	<g>
		<defs>
			<path id="SVGID_1_" d="M13.4,5.4c-1.7,0-3,1.3-3,3s1.3,3,3,3c1.7,0,3-1.3,3-3S15.1,5.4,13.4,5.4z M13.4,3.4c2.8,0,5,2.2,5,5
				s-2.2,5-5,5c-2.8,0-5-2.2-5-5S10.7,3.4,13.4,3.4z M17.4,15.4c2.8,0,5,2.2,5,5v2c0,0.6-0.4,1-1,1s-1-0.4-1-1v-2c0-1.7-1.3-3-3-3
				h-8c-1.7,0-3,1.3-3,3v2c0,0.6-0.4,1-1,1s-1-0.4-1-1v-2c0-2.8,2.2-5,5-5H17.4z"/>
		</defs>
		<clipPath id="SVGID_2_">
			<use xlink:href="#SVGID_1_"  style="overflow:visible;"/>
		</clipPath>
		<rect x="3.4" y="2.4" class="st0" width="20" height="22"/>
	</g>
</g>
</svg>
