<?xml version="1.0" encoding="utf-8"?>
<!-- Generator: Adobe Illustrator 24.2.3, SVG Export Plug-In . SVG Version: 6.00 Build 0)  -->
<svg version="1.1" id="Layer_1" xmlns="http://www.w3.org/2000/svg" xmlns:xlink="http://www.w3.org/1999/xlink" x="0px" y="0px"
	 viewBox="0 0 26.8 26.8" style="enable-background:new 0 0 26.8 26.8;" xml:space="preserve">
<style type="text/css">
	.st0{clip-path:url(#SVGID_2_);enable-background:new    ;}
	.st1{clip-path:url(#SVGID_4_);}
	.st2{clip-path:url(#SVGID_6_);fill:#FFFFFF;}
</style>
<g>
	<defs>
		<path id="SVGID_1_" d="M13.4,9.8c-1,0-1.8,0.8-1.8,1.8s0.8,1.8,1.8,1.8s1.8-0.8,1.8-1.8S14.4,9.8,13.4,9.8z M13.4,8
			c2,0,3.6,1.6,3.6,3.6s-1.6,3.6-3.6,3.6s-3.6-1.6-3.6-3.6S11.4,8,13.4,8z M13.4,4.4c-4,0-7.2,3.2-7.2,7.2c0,2.5,1.4,5.1,3.8,7.6
			c0.9,0.9,1.8,1.7,2.7,2.5c0.3,0.2,0.5,0.4,0.7,0.5c0.2-0.2,0.5-0.3,0.7-0.5c0.9-0.7,1.8-1.6,2.7-2.5c2.4-2.5,3.8-5.1,3.8-7.6
			C20.6,7.6,17.4,4.4,13.4,4.4z M13.4,2.6c5,0,9,4,9,9c0,3-1.6,6-4.3,8.8c-0.9,1-1.9,1.9-2.9,2.6c-0.3,0.3-0.7,0.5-1,0.7
			c-0.2,0.1-0.3,0.2-0.4,0.3c-0.3,0.2-0.7,0.2-1,0c-0.1,0-0.2-0.1-0.4-0.3c-0.3-0.2-0.6-0.4-1-0.7c-1-0.8-2-1.7-2.9-2.6
			c-2.7-2.8-4.3-5.8-4.3-8.8C4.4,6.6,8.4,2.6,13.4,2.6z"/>
	</defs>
	<clipPath id="SVGID_2_">
		<use xlink:href="#SVGID_1_"  style="overflow:visible;"/>
	</clipPath>
	<g class="st0">
		<g>
			<defs>
				<rect id="SVGID_3_" x="2.6" y="0.8" width="21.6" height="27"/>
			</defs>
			<clipPath id="SVGID_4_">
				<use xlink:href="#SVGID_3_"  style="overflow:visible;"/>
			</clipPath>
			<g class="st1">
				<defs>
					<rect id="SVGID_5_" x="4.4" y="2.6" width="18" height="21.6"/>
				</defs>
				<clipPath id="SVGID_6_">
					<use xlink:href="#SVGID_5_"  style="overflow:visible;"/>
				</clipPath>
				<rect x="2.6" y="0.8" class="st2" width="21.6" height="25.3"/>
			</g>
		</g>
	</g>
</g>
</svg>
