<?xml version="1.0" encoding="utf-8"?>
<!-- Generator: Adobe Illustrator 24.2.3, SVG Export Plug-In . SVG Version: 6.00 Build 0)  -->
<svg version="1.1" id="Layer_1" xmlns="http://www.w3.org/2000/svg" xmlns:xlink="http://www.w3.org/1999/xlink" x="0px" y="0px"
	 viewBox="0 0 103 45" style="enable-background:new 0 0 103 45;" xml:space="preserve">
<style type="text/css">
	.st0{fill:#C7C8CA;}
</style>
<g>
	<path class="st0" d="M100.6,37.9c-2.5,0-4.9,0-7.4,0c-0.3-1.3-0.6-2.6-0.8-3.9c-0.1-0.5-0.3-0.7-0.9-0.7c-3,0-5.9,0-8.9,0
		c-0.4,0-0.6,0.1-0.8,0.6c-0.4,1.2-0.9,2.4-1.3,3.6c-0.1,0.2-0.3,0.4-0.4,0.4c-2.7,0-5.3,0-8.1,0c0.5-1.2,1-2.4,1.5-3.5
		c3.4-8.2,6.9-16.5,10.3-24.7c0.7-1.8,1.9-2.5,3.8-2.5c2.1,0,4.3,0,6.5,0c0.2,1,0.4,2,0.6,3c1.7,8.1,3.4,16.3,5.1,24.4
		c0.2,1,0.5,2.1,0.7,3.1C100.6,37.7,100.6,37.8,100.6,37.9z M91,27c-0.8-3.8-1.6-7.5-2.3-11.2c0,0-0.1,0-0.1,0
		c-1.4,3.7-2.7,7.5-4.1,11.3C86.6,27,88.8,27,91,27z"/>
	<path class="st0" d="M68.4,6.6c1,0.2,2,0.3,2.9,0.6c0.9,0.2,1.7,0.5,2.7,0.8c-0.5,2.2-0.9,4.4-1.4,6.5c-1.2-0.4-2.4-0.8-3.6-1
		c-1.7-0.4-3.4-0.5-5,0c-0.7,0.2-1.4,0.6-1.9,1c-0.9,0.8-0.9,1.9-0.1,2.7c0.6,0.6,1.3,1,2,1.5c1.6,1,3.3,1.8,4.9,2.9
		c1.9,1.2,3.2,2.9,3.5,5.2c0.5,4-1,7.2-4.4,9.4c-2.1,1.4-4.5,2-7,2.3c-3.5,0.3-6.9-0.1-10.3-1.2c-0.2-0.1-0.4-0.2-0.7-0.3
		c-0.1,0-0.1-0.1-0.2-0.1c0.5-2.2,0.9-4.4,1.4-6.7c0.6,0.2,1.1,0.5,1.7,0.7c2.6,1.1,5.3,1.5,8.1,1c0.7-0.1,1.5-0.5,2.1-0.9
		c1.3-0.9,1.5-2.6,0.2-3.6c-0.8-0.7-1.8-1.2-2.7-1.8c-1.4-0.9-2.9-1.6-4.3-2.6c-1.7-1.2-3-2.9-3.2-5.1c-0.4-3.3,0.9-6,3.4-8.1
		c2.2-1.8,4.8-2.6,7.6-3c0.2,0,0.3-0.1,0.5-0.1C65.9,6.6,67.2,6.6,68.4,6.6z"/>
	<path class="st0" d="M39.6,7.2c-0.4,1-0.8,2-1.2,2.9c-3.8,9.1-7.6,18.2-11.4,27.3c-0.2,0.4-0.4,0.5-0.8,0.5c-2.4,0-4.8,0-7.2,0
		c-0.5,0-0.7-0.2-0.8-0.6c-2-7.9-4.1-15.9-6.1-23.8c-0.4-1.5-1.1-2.5-2.5-3.1C7.3,9.4,5,8.7,2.7,8.2c-0.1,0-0.2-0.1-0.3-0.1
		c0-0.9,0-0.9,0.9-0.9c4.2,0,8.4,0,12.6,0c2,0,3.4,1.2,3.8,3.1c1.1,5.6,2.1,11.2,3.2,16.8c0,0.2,0.1,0.5,0.2,0.8
		c0.1-0.2,0.2-0.3,0.2-0.4c2.6-6.6,5.2-13.2,7.8-19.8c0.1-0.4,0.3-0.5,0.7-0.5c2.4,0,4.9,0,7.3,0C39.3,7.2,39.4,7.2,39.6,7.2z"/>
	<path class="st0" d="M36.5,37.9c2.2-10.3,4.4-20.5,6.6-30.7c2.7,0,5.3,0,8,0c-0.3,1.6-0.7,3.1-1,4.6c-1.8,8.4-3.6,16.9-5.4,25.3
		c-0.1,0.6-0.3,0.8-0.9,0.8c-2.2,0-4.4,0-6.6,0C36.9,37.9,36.7,37.9,36.5,37.9z"/>
</g>
</svg>
