<?xml version="1.0" encoding="utf-8"?>
<!-- Generator: Adobe Illustrator 24.2.3, SVG Export Plug-In . SVG Version: 6.00 Build 0)  -->
<svg version="1.1" id="Layer_1" xmlns="http://www.w3.org/2000/svg" xmlns:xlink="http://www.w3.org/1999/xlink" x="0px" y="0px"
	 viewBox="0 0 126 45" style="enable-background:new 0 0 126 45;" xml:space="preserve">
<style type="text/css">
	.st0{fill:#007DC2;}
	.st1{fill:#FCBA30;}
</style>
<g>
	<g>
		<g>
			<g>
				<g>
					<path class="st0" d="M73.7,24.6c0-2.7-1.2-5.1-5.1-5.1c-2,0-3.6,0.6-4.5,1.1l0.6,2.2c0.8-0.5,2.1-0.9,3.3-0.9
						c2,0,2.3,1.1,2.3,1.9v0.2c-4.4,0-7.1,1.5-7.1,4.6c0,1.9,1.4,3.6,3.8,3.6c1.5,0,2.8-0.6,3.5-1.6h0.1c0,0,0.5,2.1,3.2,1.3
						c-0.1-0.9-0.2-1.8-0.2-2.9V24.6z M70.4,27.5c0,0.2,0,0.5-0.1,0.7c-0.3,0.8-1.1,1.5-2.2,1.5c-0.9,0-1.6-0.5-1.6-1.6
						c0-1.7,1.8-2.1,3.9-2.1V27.5z"/>
					<path class="st0" d="M5.8,15.8c0,0,2.8,11.7,3.3,13.6c0.5,2.2,1.5,3,4.2,2.5l1.8-7.2c0.5-1.8,0.8-3.1,1-4.9h0.1
						c0.2,1.8,0.5,3.1,0.9,4.9c0,0,0.7,3.3,1.1,5c0.4,1.7,1.4,2.8,4.1,2.2l4.2-16h-3.4l-1.4,6.9c-0.4,2-0.7,3.6-1,5.4h0
						c-0.2-1.8-0.6-3.3-1-5.3l-1.5-7.1h-3.6l-1.6,6.9c-0.5,2.1-0.9,3.8-1.2,5.6h0c-0.3-1.7-0.6-3.8-1-5.8c0,0-1-4.9-1.3-6.6H5.8z"/>
					<path class="st0" d="M36.2,24.6c0-2.7-1.2-5.1-5.1-5.1c-2,0-3.6,0.6-4.5,1.1l0.6,2.2c0.8-0.5,2.1-0.9,3.3-0.9
						c2,0,2.3,1.1,2.3,1.9v0.2c-4.4,0-7.1,1.5-7.1,4.6c0,1.9,1.4,3.6,3.8,3.6c1.5,0,2.8-0.6,3.5-1.6h0.1c0,0,0.5,2.1,3.2,1.3
						c-0.1-0.9-0.2-1.8-0.2-2.9V24.6z M33,27.5c0,0.2,0,0.5-0.1,0.7c-0.3,0.8-1.1,1.5-2.2,1.5c-0.9,0-1.6-0.5-1.6-1.6
						c0-1.7,1.8-2.1,3.9-2.1V27.5z"/>
					<rect x="38.4" y="15.8" class="st0" width="3.3" height="16"/>
					<path class="st0" d="M87.5,15.8v3.8h2.8v3.1h-2.8v4.5c0,1.5,0.4,2.2,1.5,2.2c0.5,0,0.9-0.1,1.2-0.1l0,2.5
						c-0.4,0.2-1.4,0.3-2.4,0.3c-1.1,0-2.1-0.4-2.6-1c-0.7-0.7-1-1.8-1-3.5V15.8H87.5z"/>
					<path class="st0" d="M78.8,19.8V22h0.1c0.6-1.7,2-2.5,3.3-2.5c0.3,0,0.5,0,0.7,0.1v3.2c-0.3,0-0.6-0.1-1-0.1
						c-1.4,0-2.4,0.8-2.7,2.1c-0.1,0.3-0.1,0.6-0.1,0.9v6.2h-3.4v-12H78.8z"/>
					<path class="st0" d="M47,19.8v1.6h0c0.6-0.9,1.5-1.9,3.5-1.9c1.6,0,2.8,0.9,3.3,2.2h0c0.4-0.7,1-1.2,1.5-1.5
						c0.7-0.4,1.4-0.7,2.4-0.7c2.1,0,4,1.5,4,5.2v7.1h-3.3v-6.6c0-1.9-0.6-3-2-3c-1,0-1.7,0.7-2,1.5c-0.1,0.3-0.1,0.7-0.1,1v7.1
						h-3.3v-6.9c0-1.6-0.6-2.7-1.9-2.7c-1.1,0-1.7,0.8-2,1.5c-0.1,0.3-0.2,0.7-0.2,1v7.1h-3.3v-12H47z"/>
					<path class="st1" d="M107.9,18c0.6,0,1.2-0.3,1.3-0.8l0.6-7.2c0-0.7-0.8-1.3-1.9-1.3c-1.1,0-1.9,0.6-1.9,1.3l0.6,7.2
						C106.7,17.6,107.3,18,107.9,18"/>
					<path class="st1" d="M104,20.2c0.3-0.6,0.3-1.2,0-1.5L98,14.6c-0.6-0.4-1.5,0.1-2.1,1c-0.5,0.9-0.4,1.9,0.2,2.3l6.6,3.1
						C103.1,21.1,103.7,20.8,104,20.2"/>
					<path class="st1" d="M111.8,20.2c0.3,0.6,0.9,0.9,1.3,0.7l6.6-3.1c0.6-0.4,0.7-1.4,0.2-2.3c-0.5-0.9-1.5-1.3-2.1-1l-5.9,4.2
						C111.5,19.1,111.5,19.7,111.8,20.2"/>
					<path class="st1" d="M107.9,27c0.6,0,1.2,0.3,1.3,0.8l0.6,7.2c0,0.7-0.8,1.3-1.9,1.3c-1.1,0-1.9-0.6-1.9-1.3l0.6-7.2
						C106.7,27.4,107.3,27,107.9,27"/>
					<path class="st1" d="M111.8,24.8c0.3-0.6,0.9-0.9,1.3-0.7l6.6,3.1c0.6,0.4,0.7,1.4,0.2,2.3c-0.5,0.9-1.5,1.3-2.1,1l-5.9-4.2
						C111.5,25.9,111.5,25.3,111.8,24.8"/>
					<path class="st1" d="M104,24.8c0.3,0.6,0.3,1.2,0,1.5L98,30.4c-0.6,0.4-1.5-0.1-2.1-1c-0.5-0.9-0.4-1.9,0.2-2.3l6.6-3.1
						C103.1,23.9,103.7,24.2,104,24.8"/>
				</g>
			</g>
		</g>
	</g>
</g>
</svg>
