<?xml version="1.0" encoding="utf-8"?>
<!-- Generator: Adobe Illustrator 24.2.3, SVG Export Plug-In . SVG Version: 6.00 Build 0)  -->
<svg version="1.1" id="Capa_1" xmlns="http://www.w3.org/2000/svg" xmlns:xlink="http://www.w3.org/1999/xlink" x="0px" y="0px"
	 viewBox="0 0 47 63" style="enable-background:new 0 0 47 63;" xml:space="preserve">
<style type="text/css">
	.st0{clip-path:url(#SVGID_2_);enable-background:new    ;}
	.st1{clip-path:url(#SVGID_4_);}
	.st2{clip-path:url(#SVGID_6_);}
	.st3{clip-path:url(#SVGID_8_);fill:#021D49;}
	.st4{clip-path:url(#SVGID_10_);}
	.st5{clip-path:url(#SVGID_12_);fill:#FFFFFF;}
	.st6{clip-path:url(#SVGID_14_);}
	.st7{clip-path:url(#SVGID_16_);fill:#153C6A;}
	.st8{clip-path:url(#SVGID_18_);}
	.st9{clip-path:url(#SVGID_20_);fill:#153C6A;}
	.st10{clip-path:url(#SVGID_22_);}
	.st11{clip-path:url(#SVGID_24_);fill:#153C6A;}
	.st12{clip-path:url(#SVGID_26_);enable-background:new    ;}
	.st13{clip-path:url(#SVGID_28_);}
	.st14{clip-path:url(#SVGID_30_);}
	.st15{clip-path:url(#SVGID_32_);fill:#153C6A;}
</style>
<g>
	<defs>
		<rect id="SVGID_1_" x="194.2" y="82.6" width="36" height="43"/>
	</defs>
	<clipPath id="SVGID_2_">
		<use xlink:href="#SVGID_1_"  style="overflow:visible;"/>
	</clipPath>
	<g class="st0">
		<g>
			<defs>
				<rect id="SVGID_3_" x="194.2" y="81.6" width="37" height="45"/>
			</defs>
			<clipPath id="SVGID_4_">
				<use xlink:href="#SVGID_3_"  style="overflow:visible;"/>
			</clipPath>
			<g class="st1">
				<defs>
					<path id="SVGID_5_" d="M212.2,82.6c9.9,0,18,8,18,17.9c0,6-3.2,12-8.6,17.6c-1.8,1.9-3.8,3.7-5.8,5.2c-0.7,0.5-1.3,1-1.9,1.4
						c-0.4,0.3-0.6,0.4-0.8,0.5c-0.6,0.4-1.4,0.4-2,0c-0.1-0.1-0.4-0.3-0.8-0.5c-0.6-0.4-1.2-0.9-1.9-1.4c-2-1.6-3.9-3.3-5.8-5.2
						c-5.3-5.6-8.6-11.5-8.6-17.6C194.2,90.6,202.2,82.6,212.2,82.6"/>
				</defs>
				<clipPath id="SVGID_6_">
					<use xlink:href="#SVGID_5_"  style="overflow:visible;"/>
				</clipPath>
				<g class="st2">
					<defs>
						<rect id="SVGID_7_" x="194.2" y="82.6" width="36" height="43"/>
					</defs>
					<clipPath id="SVGID_8_">
						<use xlink:href="#SVGID_7_"  style="overflow:visible;"/>
					</clipPath>
					<rect x="193.2" y="81.6" class="st3" width="38" height="45.1"/>
				</g>
			</g>
		</g>
	</g>
</g>
<g>
	<defs>
		<path id="SVGID_9_" d="M218.5,107.8l-12.8,1.8l6.2-21c1.4,1.3,3.2,3.3,4.6,6.1C219.2,100.1,218.8,105.6,218.5,107.8"/>
	</defs>
	<clipPath id="SVGID_10_">
		<use xlink:href="#SVGID_9_"  style="overflow:visible;"/>
	</clipPath>
	<g class="st4">
		<defs>
			<rect id="SVGID_11_" x="-712.3" y="-382.4" width="1440" height="1683"/>
		</defs>
		<clipPath id="SVGID_12_">
			<use xlink:href="#SVGID_11_"  style="overflow:visible;"/>
		</clipPath>
		<rect x="204.7" y="87.6" class="st5" width="15.5" height="23"/>
	</g>
</g>
<g>
	<defs>
		<path id="SVGID_13_" d="M5.8,23.4c0,10,7.9,18.2,17.7,18.2c9.8,0,17.7-8.2,17.7-18.2c0-10-7.9-18.2-17.7-18.2
			C13.7,5.2,5.8,13.3,5.8,23.4 M23.5,7.6c8.5,0,15.4,7.1,15.4,15.8c0,8.7-6.9,15.8-15.4,15.8c-8.5,0-15.4-7.1-15.4-15.8
			C8.1,14.7,15,7.6,23.5,7.6"/>
	</defs>
	<clipPath id="SVGID_14_">
		<use xlink:href="#SVGID_13_"  style="overflow:visible;"/>
	</clipPath>
	<g class="st6">
		<defs>
			<rect id="SVGID_15_" x="-260.4" y="-144.2" width="567.8" height="581.2"/>
		</defs>
		<clipPath id="SVGID_16_">
			<use xlink:href="#SVGID_15_"  style="overflow:visible;"/>
		</clipPath>
		<rect x="4.8" y="4.2" class="st7" width="37.3" height="38.3"/>
	</g>
</g>
<g>
	<defs>
		<path id="SVGID_17_" d="M12.8,21.4l4.7,4.6l-1.1,6.5c-0.1,0.5,0.1,0.9,0.5,1.2c0.4,0.3,0.9,0.3,1.3,0.1l5.8-3l5.8,3
			c0.4,0.2,0.9,0.2,1.3-0.1c0.4-0.3,0.6-0.7,0.5-1.2L30.5,26l4.7-4.6c0.3-0.3,0.4-0.8,0.3-1.2c-0.1-0.4-0.5-0.8-1-0.8l-6.5-1
			l-2.9-5.9c-0.2-0.4-0.6-0.7-1.1-0.7c-0.5,0-0.9,0.3-1.1,0.7L20,18.4l-6.5,1c-0.5,0.1-0.8,0.4-1,0.8C12.4,20.6,12.5,21.1,12.8,21.4
			z M21,20.7c0.4-0.1,0.7-0.3,0.9-0.7l2.1-4.3l2.1,4.3c0.2,0.4,0.5,0.6,0.9,0.7l4.7,0.7l-3.4,3.3C28,25,27.9,25.4,28,25.8l0.8,4.7
			l-4.2-2.2c-0.2-0.1-0.4-0.1-0.6-0.1c-0.2,0-0.4,0-0.6,0.1l-4.2,2.2l0.8-4.7c0.1-0.4-0.1-0.8-0.3-1.1l-3.4-3.3L21,20.7z"/>
	</defs>
	<clipPath id="SVGID_18_">
		<use xlink:href="#SVGID_17_"  style="overflow:visible;"/>
	</clipPath>
	<g class="st8">
		<defs>
			<rect id="SVGID_19_" x="-260.4" y="-144.2" width="567.8" height="581.2"/>
		</defs>
		<clipPath id="SVGID_20_">
			<use xlink:href="#SVGID_19_"  style="overflow:visible;"/>
		</clipPath>
		<rect x="11.4" y="10.9" class="st9" width="25.1" height="24"/>
	</g>
</g>
<g>
	<defs>
		<path id="SVGID_21_" d="M24.9,2.3c0,0.5-0.6,1-1.4,1c-0.8,0-1.4-0.4-1.4-1s0.6-1,1.4-1C24.3,1.3,24.9,1.8,24.9,2.3"/>
	</defs>
	<clipPath id="SVGID_22_">
		<use xlink:href="#SVGID_21_"  style="overflow:visible;"/>
	</clipPath>
	<g class="st10">
		<defs>
			<rect id="SVGID_23_" x="-260.4" y="-144.2" width="567.8" height="581.2"/>
		</defs>
		<clipPath id="SVGID_24_">
			<use xlink:href="#SVGID_23_"  style="overflow:visible;"/>
		</clipPath>
		<rect x="21.1" y="0.4" class="st11" width="4.8" height="3.8"/>
	</g>
</g>
<g>
	<defs>
		<rect id="SVGID_25_" x="1" y="1.3" width="45" height="60.3"/>
	</defs>
	<clipPath id="SVGID_26_">
		<use xlink:href="#SVGID_25_"  style="overflow:visible;"/>
	</clipPath>
	<g class="st12">
		<g>
			<defs>
				<rect id="SVGID_27_" x="0" y="0.4" width="46.9" height="62.2"/>
			</defs>
			<clipPath id="SVGID_28_">
				<use xlink:href="#SVGID_27_"  style="overflow:visible;"/>
			</clipPath>
			<g class="st13">
				<defs>
					<path id="SVGID_29_" d="M17.9,1.4C8,3.9,1,13,1,23.3c0,6.4,2.7,12.5,7.4,16.8L1.3,52.7C1,53.1,1.1,53.6,1.3,54
						c0.3,0.4,0.7,0.6,1.2,0.5l8.1-1.7l2.8,8.1c0.2,0.4,0.6,0.7,1,0.8s0.9-0.2,1.1-0.6l7.9-13.9l7.9,13.9c0.2,0.4,0.6,0.6,1,0.6
						c0,0,0.1,0,0.1,0c0.5,0,0.9-0.3,1-0.8l2.8-8.1l8.1,1.7c0.5,0.1,0.9-0.1,1.2-0.5c0.3-0.4,0.3-0.9,0.1-1.3l-7.1-12.6
						c4.7-4.3,7.4-10.4,7.4-16.8C46,13,39,3.9,29.1,1.4c-0.6-0.2-1.3,0.2-1.4,0.9c-0.2,0.6,0.2,1.3,0.9,1.4
						C37.4,6,43.6,14,43.6,23.3c0,11.3-9.1,20.3-20.1,20.3c-11,0-20.1-9-20.1-20.3C3.4,14,9.6,6,18.5,3.7c0.6-0.2,1-0.8,0.9-1.4
						C19.2,1.6,18.6,1.2,17.9,1.4z M14.9,57.6L12.5,51c-0.2-0.6-0.8-0.9-1.4-0.8l-6.6,1.4l5.6-10c3.3,2.4,7.2,3.9,11.2,4.2
						L14.9,57.6z M35.8,50.3c-0.6-0.1-1.2,0.2-1.4,0.8l-2.3,6.6l-6.7-11.8c4.1-0.4,8-1.8,11.2-4.2l5.6,10L35.8,50.3z"/>
				</defs>
				<clipPath id="SVGID_30_">
					<use xlink:href="#SVGID_29_"  style="overflow:visible;"/>
				</clipPath>
				<g class="st14">
					<defs>
						<rect id="SVGID_31_" x="1" y="1.3" width="45" height="60.3"/>
					</defs>
					<clipPath id="SVGID_32_">
						<use xlink:href="#SVGID_31_"  style="overflow:visible;"/>
					</clipPath>
					<rect x="0" y="0.3" class="st15" width="46.9" height="62.4"/>
				</g>
			</g>
		</g>
	</g>
</g>
</svg>
