<?xml version="1.0" encoding="utf-8"?>
<!-- Generator: Adobe Illustrator 24.2.3, SVG Export Plug-In . SVG Version: 6.00 Build 0)  -->
<svg version="1.1" id="Capa_1" xmlns="http://www.w3.org/2000/svg" xmlns:xlink="http://www.w3.org/1999/xlink" x="0px" y="0px"
	 viewBox="0 0 68.5 68.9" style="enable-background:new 0 0 68.5 68.9;" xml:space="preserve">
<style type="text/css">
	.st0{clip-path:url(#SVGID_2_);enable-background:new    ;}
	.st1{clip-path:url(#SVGID_4_);}
	.st2{clip-path:url(#SVGID_6_);}
	.st3{clip-path:url(#SVGID_8_);fill:#021D49;}
	.st4{clip-path:url(#SVGID_10_);}
	.st5{clip-path:url(#SVGID_12_);fill:#FFFFFF;}
	.st6{clip-path:url(#SVGID_14_);}
	.st7{clip-path:url(#SVGID_16_);fill:#153C6A;}
	.st8{clip-path:url(#SVGID_18_);}
	.st9{clip-path:url(#SVGID_20_);fill:#153C6A;}
	.st10{clip-path:url(#SVGID_22_);}
	.st11{clip-path:url(#SVGID_24_);fill:#153C6A;}
	.st12{clip-path:url(#SVGID_26_);enable-background:new    ;}
	.st13{clip-path:url(#SVGID_28_);}
	.st14{clip-path:url(#SVGID_30_);}
	.st15{clip-path:url(#SVGID_32_);fill:#153C6A;}
</style>
<g>
	<defs>
		<rect id="SVGID_1_" x="213.5" y="193.3" width="36" height="43"/>
	</defs>
	<clipPath id="SVGID_2_">
		<use xlink:href="#SVGID_1_"  style="overflow:visible;"/>
	</clipPath>
	<g class="st0">
		<g>
			<defs>
				<rect id="SVGID_3_" x="213.5" y="192.3" width="37" height="45"/>
			</defs>
			<clipPath id="SVGID_4_">
				<use xlink:href="#SVGID_3_"  style="overflow:visible;"/>
			</clipPath>
			<g class="st1">
				<defs>
					<path id="SVGID_5_" d="M231.5,193.3c9.9,0,18,8,18,17.9c0,6-3.2,12-8.6,17.6c-1.8,1.9-3.8,3.7-5.8,5.2c-0.7,0.5-1.3,1-1.9,1.4
						c-0.4,0.3-0.6,0.4-0.8,0.5c-0.6,0.4-1.4,0.4-2,0c-0.1-0.1-0.4-0.3-0.8-0.5c-0.6-0.4-1.2-0.9-1.9-1.4c-2-1.6-3.9-3.3-5.8-5.2
						c-5.3-5.6-8.6-11.5-8.6-17.6C213.5,201.3,221.5,193.3,231.5,193.3"/>
				</defs>
				<clipPath id="SVGID_6_">
					<use xlink:href="#SVGID_5_"  style="overflow:visible;"/>
				</clipPath>
				<g class="st2">
					<defs>
						<rect id="SVGID_7_" x="213.5" y="193.3" width="36" height="43"/>
					</defs>
					<clipPath id="SVGID_8_">
						<use xlink:href="#SVGID_7_"  style="overflow:visible;"/>
					</clipPath>
					<rect x="212.5" y="192.3" class="st3" width="38" height="45.1"/>
				</g>
			</g>
		</g>
	</g>
</g>
<g>
	<defs>
		<path id="SVGID_9_" d="M237.8,218.4l-12.8,1.8l6.2-21c1.4,1.3,3.2,3.3,4.6,6.1C238.5,210.8,238.1,216.2,237.8,218.4"/>
	</defs>
	<clipPath id="SVGID_10_">
		<use xlink:href="#SVGID_9_"  style="overflow:visible;"/>
	</clipPath>
	<g class="st4">
		<defs>
			<rect id="SVGID_11_" x="-693" y="-271.7" width="1440" height="1683"/>
		</defs>
		<clipPath id="SVGID_12_">
			<use xlink:href="#SVGID_11_"  style="overflow:visible;"/>
		</clipPath>
		<rect x="224" y="198.3" class="st5" width="15.5" height="23"/>
	</g>
</g>
<g>
	<g>
		<defs>
			<path id="SVGID_13_" d="M23.2,53.1c0-0.1,0-0.2-0.1-0.3c0-0.1-0.1-0.2-0.1-0.3c-0.1-0.1-0.1-0.2-0.2-0.2
				c-0.1-0.1-0.1-0.1-0.2-0.2c-0.1-0.1-0.2-0.1-0.3-0.1c-0.1,0-0.2-0.1-0.3-0.1c-0.2,0-0.4,0-0.6,0c-0.1,0-0.2,0-0.3,0.1
				c-0.1,0-0.2,0.1-0.3,0.1c-0.1,0.1-0.2,0.1-0.2,0.2c-0.1,0.1-0.1,0.1-0.2,0.2c-0.1,0.1-0.1,0.2-0.1,0.3c0,0.1-0.1,0.2-0.1,0.3
				c0,0.1,0,0.2,0,0.3c0,0.1,0,0.2,0,0.3c0,0.1,0,0.2,0.1,0.3c0,0.1,0.1,0.2,0.1,0.3c0.1,0.1,0.1,0.2,0.2,0.2
				c0.1,0.1,0.1,0.1,0.2,0.2c0.1,0.1,0.2,0.1,0.3,0.1c0.1,0,0.2,0.1,0.3,0.1c0.1,0,0.2,0,0.3,0c0.1,0,0.2,0,0.3,0
				c0.1,0,0.2,0,0.3-0.1c0.1,0,0.2-0.1,0.3-0.1c0.1-0.1,0.2-0.1,0.2-0.2c0.1-0.1,0.1-0.1,0.2-0.2c0.1-0.1,0.1-0.2,0.1-0.3
				c0-0.1,0.1-0.2,0.1-0.3c0-0.1,0-0.2,0-0.3C23.3,53.3,23.3,53.2,23.2,53.1"/>
		</defs>
		<clipPath id="SVGID_14_">
			<use xlink:href="#SVGID_13_"  style="overflow:visible;"/>
		</clipPath>
		<g class="st6">
			<defs>
				<rect id="SVGID_15_" x="-262.7" y="-153.1" width="593" height="622"/>
			</defs>
			<clipPath id="SVGID_16_">
				<use xlink:href="#SVGID_15_"  style="overflow:visible;"/>
			</clipPath>
			<rect x="19.3" y="50.9" class="st7" width="5" height="5"/>
		</g>
	</g>
	<g>
		<defs>
			<path id="SVGID_17_" d="M61.9,53.3C61.9,53.3,61.8,53.2,61.9,53.3c-1.2-2.9-4.1-4-7.6-2.8L45,53c-0.5-1.6-1.9-3-3.8-3.7
				c0,0,0,0,0,0l-10.3-3.5c-0.9-1.1-3.5-3.9-8.5-3.9c-3.5,0-6.6,2.4-8.4,5H1.6c-0.7,0-1.3,0.6-1.3,1.3v16.8c0,0.7,0.6,1.3,1.3,1.3h8
				c0.7,0,1.3-0.6,1.3-1.3v-1.2h3.7c0.7,0,1.3-0.6,1.3-1.3v-0.4c2.2,0.2,2.9,0.6,4.9,1.8c1.5,0.9,3.9,2.2,8,4.1c0,0,0,0,0.1,0
				c0.8,0.3,2.4,0.8,4.3,0.8c1.3,0,2.9-0.2,4.4-0.9l20.6-7.4c0,0,0.1,0,0.1,0C60.4,59.6,63.3,57.1,61.9,53.3z M2.9,63.8h5.3V49.6
				H2.9V63.8z M10.9,61.3h2.4V49.6h-2.4V61.3z M57.4,58.1l-20.6,7.4c0,0,0,0-0.1,0c0,0,0,0-0.1,0C33.8,66.8,31,66,30,65.6
				c-4-1.8-6.2-3.1-7.8-4C20,60.4,19,59.8,16,59.5V48.8c1.3-2.1,3.7-4.2,6.4-4.2c4.6,0,6.5,3,6.6,3.1c0.2,0.3,0.4,0.5,0.7,0.6
				l10.6,3.6c1.7,0.6,2.6,2.1,2.2,3.5c-0.2,0.7-0.6,1.2-1.2,1.6c-0.6,0.3-1.3,0.4-2,0.2l-12-3.8c-0.7-0.2-1.5,0.2-1.7,0.9
				c-0.2,0.7,0.2,1.5,0.9,1.7l12,3.8c0,0,0,0,0,0c0.5,0.1,1,0.2,1.5,0.2c0.9,0,1.8-0.2,2.6-0.7c1.2-0.7,2.1-1.8,2.5-3.2
				c0-0.1,0.1-0.2,0.1-0.3L55.2,53c1.5-0.5,3.4-0.7,4.2,1.3C60.2,56.5,58,57.8,57.4,58.1z"/>
		</defs>
		<clipPath id="SVGID_18_">
			<use xlink:href="#SVGID_17_"  style="overflow:visible;"/>
		</clipPath>
		<g class="st8">
			<defs>
				<rect id="SVGID_19_" x="-262.7" y="-153.1" width="593" height="622"/>
			</defs>
			<clipPath id="SVGID_20_">
				<use xlink:href="#SVGID_19_"  style="overflow:visible;"/>
			</clipPath>
			<rect x="-0.7" y="40.9" class="st9" width="65.1" height="29"/>
		</g>
	</g>
	<g>
		<defs>
			<path id="SVGID_21_" d="M48.2,18.1c0-0.1,0-0.2-0.1-0.3c0-0.1-0.1-0.2-0.1-0.3c-0.1-0.1-0.1-0.2-0.2-0.2
				c-0.1-0.1-0.1-0.1-0.2-0.2c-0.1-0.1-0.2-0.1-0.3-0.1c-0.1,0-0.2-0.1-0.3-0.1c-0.2,0-0.4,0-0.6,0c-0.1,0-0.2,0-0.3,0.1
				c-0.1,0-0.2,0.1-0.3,0.1c-0.1,0.1-0.2,0.1-0.2,0.2c-0.1,0.1-0.1,0.1-0.2,0.2c-0.1,0.1-0.1,0.2-0.1,0.3c0,0.1-0.1,0.2-0.1,0.3
				c0,0.1,0,0.2,0,0.3c0,0.1,0,0.2,0,0.3c0,0.1,0,0.2,0.1,0.3c0,0.1,0.1,0.2,0.1,0.3c0.1,0.1,0.1,0.2,0.2,0.2s0.1,0.1,0.2,0.2
				c0.1,0.1,0.2,0.1,0.3,0.1c0.1,0,0.2,0.1,0.3,0.1c0.1,0,0.2,0,0.3,0c0.1,0,0.2,0,0.3,0c0.1,0,0.2,0,0.3-0.1c0.1,0,0.2-0.1,0.3-0.1
				c0.1-0.1,0.2-0.1,0.2-0.2s0.1-0.1,0.2-0.2c0.1-0.1,0.1-0.2,0.1-0.3c0-0.1,0.1-0.2,0.1-0.3c0-0.1,0-0.2,0-0.3
				C48.3,18.3,48.3,18.2,48.2,18.1"/>
		</defs>
		<clipPath id="SVGID_22_">
			<use xlink:href="#SVGID_21_"  style="overflow:visible;"/>
		</clipPath>
		<g class="st10">
			<defs>
				<rect id="SVGID_23_" x="-262.7" y="-153.1" width="593" height="622"/>
			</defs>
			<clipPath id="SVGID_24_">
				<use xlink:href="#SVGID_23_"  style="overflow:visible;"/>
			</clipPath>
			<rect x="44.3" y="15.9" class="st11" width="5" height="5"/>
		</g>
	</g>
	<g>
		<defs>
			<rect id="SVGID_25_" x="0.3" y="0.9" width="68" height="68"/>
		</defs>
		<clipPath id="SVGID_26_">
			<use xlink:href="#SVGID_25_"  style="overflow:visible;"/>
		</clipPath>
		<g class="st12">
			<g>
				<defs>
					<rect id="SVGID_27_" x="3.3" y="-0.1" width="65" height="45"/>
				</defs>
				<clipPath id="SVGID_28_">
					<use xlink:href="#SVGID_27_"  style="overflow:visible;"/>
				</clipPath>
				<g class="st13">
					<defs>
						<path id="SVGID_29_" d="M66.9,5.4H59c-0.7,0-1.3,0.6-1.3,1.3v1.2H54c-0.7,0-1.3,0.6-1.3,1.3v0.4c-2.2-0.2-2.9-0.6-4.8-1.8
							c-1.5-0.9-3.8-2.2-8-4.1c0,0,0,0-0.1,0c-1.3-0.5-4.9-1.6-8.7,0.1l-5.3,1.9l-4.5-4.5c-0.5-0.5-1.4-0.5-1.9,0L4.7,16.2
							c-0.5,0.5-0.6,1.3,0,1.9l25.3,25.5c0.4,0.4,1.4,0.5,1.9,0l13.5-13.6c0.4,0,0.7,0,1.1,0c3.5,0,6.5-2.4,8.3-5h12.3
							c0.7,0,1.3-0.6,1.3-1.3V6.8C68.3,6,67.7,5.4,66.9,5.4z M20.4,4.1l3,3c-0.9,0.6-1.9,0.9-3,0.9c-1.1,0-2.1-0.3-3-0.9L20.4,4.1z
							 M10.5,20.2l-3-3l3-3c0.6,0.9,0.9,2,0.9,3S11.1,19.3,10.5,20.2z M30.8,40.7l-3-3c1.8-1.1,4.2-1.1,6,0L30.8,40.7z M35.8,35.7
							c-2.9-2.1-6.9-2.1-9.9,0L12.4,22.1c1-1.4,1.6-3.2,1.6-5c0-1.8-0.6-3.5-1.6-5l3-3.1c1.4,1,3.1,1.6,4.9,1.6s3.5-0.6,4.9-1.6
							l2.9,2.9c-0.6,0.1-1.2,0.3-1.8,0.6c-1,0.5-1.7,1.3-2.2,2.3c-1.5,0.3-2.9,1-4,2.1c-2.9,3-2.9,7.8,0,10.8
							c1.5,1.5,3.4,2.2,5.3,2.2c1.9,0,3.9-0.7,5.3-2.2c1-1,1.6-2.2,2-3.5l4.5,1.5c-0.5,2.4,0,4.8,1.4,6.8L35.8,35.7z M27.7,22.6
							C27.7,22.6,27.7,22.6,27.7,22.6l2.7,0.9c-0.2,0.9-0.7,1.8-1.3,2.4c-1.9,1.9-5,1.9-6.9,0c-1.9-1.9-1.9-5.1,0-7
							c0.5-0.5,1-0.8,1.6-1.1C24,19.9,25.5,21.7,27.7,22.6z M40.7,30.7c-0.5-0.8-0.8-1.8-0.8-2.8c0.6,0.5,1.4,0.9,2.3,1.3L40.7,30.7
							z M52.7,23.1c-1.3,2.1-3.7,4.2-6.3,4.2c-0.5,0-1,0-1.4-0.1c0,0,0,0,0,0c-2.9-0.4-4.4-2.1-4.9-2.7c0,0-0.1-0.2-0.2-0.2
							c-0.2-0.3-0.4-0.5-0.7-0.6l-10.6-3.6c-1.7-0.6-2.6-2.1-2.2-3.5c0,0,0,0,0,0c0,0,0,0,0,0c0.2-0.7,0.6-1.2,1.2-1.6
							c0.6-0.3,1.3-0.4,1.9-0.2l11.9,3.8c0.7,0.2,1.4-0.2,1.7-0.9c0.2-0.7-0.2-1.5-0.9-1.7l-9.5-3l-0.1-0.1c0,0,0,0,0,0l-4.9-4.9
							l4.2-1.5c0,0,0,0,0,0c0,0,0,0,0,0c0,0,0,0,0.1,0c2.8-1.3,5.5-0.5,6.6-0.1c4,1.8,6.1,3.1,7.7,4c2.2,1.3,3.2,1.9,6.2,2.1V23.1z
							 M55.3,22.3h2.4V10.6h-2.4V22.3z M60.4,22.3h5.2V8.1h-5.2V22.3z"/>
					</defs>
					<clipPath id="SVGID_30_">
						<use xlink:href="#SVGID_29_"  style="overflow:visible;"/>
					</clipPath>
					<g class="st14">
						<defs>
							<rect id="SVGID_31_" x="0.3" y="0.9" width="68" height="68"/>
						</defs>
						<clipPath id="SVGID_32_">
							<use xlink:href="#SVGID_31_"  style="overflow:visible;"/>
						</clipPath>
						<rect x="3.1" y="-0.2" class="st15" width="66.2" height="45.3"/>
					</g>
				</g>
			</g>
		</g>
	</g>
</g>
</svg>
