<?xml version="1.0" encoding="utf-8"?>
<!-- Generator: Adobe Illustrator 24.2.3, SVG Export Plug-In . SVG Version: 6.00 Build 0)  -->
<svg version="1.1" id="Capa_1" xmlns="http://www.w3.org/2000/svg" xmlns:xlink="http://www.w3.org/1999/xlink" x="0px" y="0px"
	 viewBox="0 0 82.5 67.8" style="enable-background:new 0 0 82.5 67.8;" xml:space="preserve">
<style type="text/css">
	.st0{clip-path:url(#SVGID_2_);enable-background:new    ;}
	.st1{clip-path:url(#SVGID_4_);}
	.st2{clip-path:url(#SVGID_6_);}
	.st3{clip-path:url(#SVGID_8_);fill:#153C6A;}
	.st4{clip-path:url(#SVGID_10_);}
	.st5{clip-path:url(#SVGID_12_);fill:#153C6A;}
	.st6{clip-path:url(#SVGID_14_);}
	.st7{clip-path:url(#SVGID_16_);fill:#153C6A;}
	.st8{clip-path:url(#SVGID_18_);}
	.st9{clip-path:url(#SVGID_20_);fill:#153C6A;}
</style>
<g>
	<defs>
		<rect id="SVGID_1_" x="2.4" y="8.9" width="76" height="56"/>
	</defs>
	<clipPath id="SVGID_2_">
		<use xlink:href="#SVGID_1_"  style="overflow:visible;"/>
	</clipPath>
	<g class="st0">
		<g>
			<defs>
				<rect id="SVGID_3_" x="1.4" y="7.9" width="77" height="57"/>
			</defs>
			<clipPath id="SVGID_4_">
				<use xlink:href="#SVGID_3_"  style="overflow:visible;"/>
			</clipPath>
			<g class="st1">
				<defs>
					<path id="SVGID_5_" d="M63.9,26.8h-4.8l1.4-16.7c0,0,0-0.1,0-0.1c0,0,0,0,0,0v0c0-0.5-0.3-0.9-0.7-1c0,0,0,0,0,0
						c0,0-0.1,0-0.1,0c0,0,0,0,0,0c0,0,0,0-0.1,0c0,0,0,0,0,0c0,0,0,0-0.1,0c0,0,0,0-0.1,0c0,0,0,0,0,0c0,0,0,0-0.1,0c0,0,0,0,0,0h0
						h0H36.7c-0.6,0-1.1,0.5-1.1,1.1c0,0.6,0.5,1.1,1.1,1.1h21.6l-2.2,25.6c0,0,0,0,0,0l-0.6,6.5H16.8l0.6-6.7h7.4
						c0.6,0,1.1-0.5,1.1-1.1c0-0.6-0.5-1.1-1.1-1.1h-7.1L19,20h11.7c0.6,0,1.1-0.5,1.1-1.1c0-0.6-0.5-1.1-1.1-1.1H19.3l0.6-6.7h12.3
						c0.6,0,1.1-0.5,1.1-1.1c0-0.6-0.5-1.1-1.1-1.1H18.9c0,0,0,0,0,0c-0.5,0-1,0.4-1.1,0.9c0,0,0,0,0,0c0,0,0,0.1,0,0.1c0,0,0,0,0,0
						c0,0,0,0,0,0L17,17.8H3.5c-0.6,0-1.1,0.5-1.1,1.1c0,0.6,0.5,1.1,1.1,1.1h13.3l-1.4,14.2h-4c-0.6,0-1.1,0.5-1.1,1.1
						c0,0.6,0.5,1.1,1.1,1.1h3.8l-0.7,7.7c0,0,0,0,0,0l-1.2,12c0,0,0,0,0,0l0,0c0,0,0,0,0,0c0,0,0,0,0,0.1c0,0,0,0,0,0
						c0,0,0,0.1,0,0.1c0,0,0,0,0,0c0,0,0,0.1,0,0.1c0,0,0,0,0,0c0,0,0,0,0,0.1c0,0,0,0,0,0c0,0,0,0,0,0c0.1,0.2,0.1,0.3,0.3,0.4
						c0,0,0,0,0,0c0,0,0,0,0,0c0.1,0.1,0.2,0.1,0.3,0.2c0,0,0,0,0.1,0c0,0,0,0,0,0c0,0,0.1,0,0.1,0c0,0,0,0,0,0c0,0,0.1,0,0.1,0
						c0,0,0,0,0,0c0,0,0.1,0,0.1,0c0,0,0,0,0,0c0,0,0.1,0,0.1,0c0,0,0,0,0,0h5c0.5,4.2,4.1,7.4,8.4,7.4c4.3,0,7.9-3.2,8.4-7.4H54
						c0.5,4.2,4.1,7.4,8.4,7.4c4.3,0,7.9-3.2,8.4-7.4h5c0,0,0,0,0,0c0,0,0.1,0,0.1,0c0,0,0,0,0,0c0,0,0.1,0,0.1,0c0,0,0,0,0,0
						c0,0,0,0,0.1,0c0,0,0,0,0,0c0,0,0,0,0.1,0c0,0,0,0,0,0c0,0,0,0,0,0c0,0,0,0,0,0c0,0,0,0,0,0c0,0,0,0,0,0c0,0,0,0,0,0
						c0,0,0,0,0,0c0,0,0,0,0,0c0,0,0,0,0,0c0,0,0,0,0,0c0,0,0,0,0,0c0,0,0,0,0-0.1c0,0,0,0,0,0c0,0,0-0.1,0.1-0.1c0,0,0,0,0,0
						c0,0,0-0.1,0-0.1c0,0,0,0,0,0c0,0,0,0,0-0.1c0,0,0,0,0,0c0,0,0,0,0-0.1c0,0,0,0,0-0.1c0,0,0,0,0,0c0-0.4,0.9-7.4,1.3-12
						c0,0,0,0,0,0c0.1-1.3,0.2-2.4,0.2-3.1C78.4,33.3,71.9,26.8,63.9,26.8z M59,29h4.6l-0.6,6.7h-4.6L59,29z M27.8,62.6
						c-3.4,0-6.2-2.8-6.2-6.3s2.8-6.3,6.2-6.3s6.2,2.8,6.2,6.3S31.2,62.6,27.8,62.6z M62.4,62.6c-3.4,0-6.2-2.8-6.2-6.3
						S59,50,62.4,50c3.4,0,6.2,2.8,6.2,6.3S65.9,62.6,62.4,62.6z M74.8,55.2h-4c-0.5-4.2-4.1-7.4-8.4-7.4c-4.3,0-7.9,3.2-8.4,7.4
						H36.2c-0.5-4.2-4.1-7.4-8.4-7.4c-4.3,0-7.9,3.2-8.4,7.4h-3.7l0.9-9.7h39.9v0h0c0,0,0.1,0,0.1,0c0,0,0,0,0,0c0,0,0.1,0,0.1,0
						c0,0,0,0,0,0c0,0,0,0,0.1,0c0,0,0,0,0,0c0,0,0,0,0.1,0c0,0,0,0,0,0c0,0,0,0,0,0c0,0,0,0,0,0c0,0,0,0,0,0c0,0,0,0,0,0
						c0,0,0,0,0,0c0,0,0,0,0,0c0,0,0,0,0,0c0,0,0,0,0,0c0,0,0,0,0,0c0,0,0,0,0,0c0,0,0,0,0,0c0,0,0,0,0,0c0,0,0,0,0-0.1c0,0,0,0,0,0
						c0,0,0,0,0-0.1c0,0,0,0,0,0c0,0,0,0,0-0.1c0,0,0,0,0,0c0,0,0,0,0-0.1c0,0,0,0,0-0.1c0,0,0,0,0-0.1c0,0,0,0,0-0.1c0,0,0,0,0,0
						l0.6-6.5h5.8c3.4,0,4.9,1.8,6.6,3.7c1.3,1.6,2.8,3.3,5.4,3.7C75.6,48.8,75.1,53.3,74.8,55.2z M76.1,43.1
						c-1.7-0.3-2.7-1.5-3.9-2.9c-1.5-1.8-3.4-4-7-4.4l0.6-6.7c5.9,0.9,10.4,6,10.4,12.2C76.2,41.8,76.1,42.4,76.1,43.1z"/>
				</defs>
				<clipPath id="SVGID_6_">
					<use xlink:href="#SVGID_5_"  style="overflow:visible;"/>
				</clipPath>
				<g class="st2">
					<defs>
						<rect id="SVGID_7_" x="2.4" y="8.9" width="76" height="56"/>
					</defs>
					<clipPath id="SVGID_8_">
						<use xlink:href="#SVGID_7_"  style="overflow:visible;"/>
					</clipPath>
					<rect x="1.4" y="7.9" class="st3" width="78" height="58"/>
				</g>
			</g>
		</g>
	</g>
</g>
<g>
	<defs>
		<path id="SVGID_9_" d="M28.4,52.9c-2.2,0-4,1.8-4,4s1.8,4,4,4s4-1.8,4-4C32.4,54.7,30.6,52.9,28.4,52.9 M28.4,58.7
			c-1,0-1.8-0.8-1.8-1.8c0-1,0.8-1.8,1.8-1.8c1,0,1.8,0.8,1.8,1.8C30.2,57.9,29.4,58.7,28.4,58.7"/>
	</defs>
	<clipPath id="SVGID_10_">
		<use xlink:href="#SVGID_9_"  style="overflow:visible;"/>
	</clipPath>
	<g class="st4">
		<defs>
			<rect id="SVGID_11_" x="-256.6" y="-145.1" width="593" height="641"/>
		</defs>
		<clipPath id="SVGID_12_">
			<use xlink:href="#SVGID_11_"  style="overflow:visible;"/>
		</clipPath>
		<rect x="23.4" y="51.9" class="st5" width="10" height="10"/>
	</g>
</g>
<g>
	<defs>
		<path id="SVGID_13_" d="M62.4,52.9c-2.2,0-4,1.8-4,4s1.8,4,4,4s4-1.8,4-4C66.4,54.7,64.6,52.9,62.4,52.9 M62.4,58.7
			c-1,0-1.8-0.8-1.8-1.8c0-1,0.8-1.8,1.8-1.8c1,0,1.8,0.8,1.8,1.8C64.2,57.9,63.4,58.7,62.4,58.7"/>
	</defs>
	<clipPath id="SVGID_14_">
		<use xlink:href="#SVGID_13_"  style="overflow:visible;"/>
	</clipPath>
	<g class="st6">
		<defs>
			<rect id="SVGID_15_" x="-256.6" y="-145.1" width="593" height="641"/>
		</defs>
		<clipPath id="SVGID_16_">
			<use xlink:href="#SVGID_15_"  style="overflow:visible;"/>
		</clipPath>
		<rect x="57.4" y="51.9" class="st7" width="10" height="10"/>
	</g>
</g>
<g>
	<defs>
		<path id="SVGID_17_" d="M13.2,27.9H7.6c-0.6,0-1.2,0.4-1.2,1s0.5,1,1.2,1h5.7c0.6,0,1.2-0.4,1.2-1S13.9,27.9,13.2,27.9"/>
	</defs>
	<clipPath id="SVGID_18_">
		<use xlink:href="#SVGID_17_"  style="overflow:visible;"/>
	</clipPath>
	<g class="st8">
		<defs>
			<rect id="SVGID_19_" x="-256.6" y="-145.1" width="593" height="641"/>
		</defs>
		<clipPath id="SVGID_20_">
			<use xlink:href="#SVGID_19_"  style="overflow:visible;"/>
		</clipPath>
		<rect x="5.4" y="26.9" class="st9" width="10" height="4"/>
	</g>
</g>
</svg>
