<?xml version="1.0" encoding="utf-8"?>
<!-- Generator: Adobe Illustrator 24.2.3, SVG Export Plug-In . SVG Version: 6.00 Build 0)  -->
<svg version="1.1" id="Layer_1" xmlns="http://www.w3.org/2000/svg" xmlns:xlink="http://www.w3.org/1999/xlink" x="0px" y="0px"
	 viewBox="0 0 106.3 81.5" style="enable-background:new 0 0 106.3 81.5;" xml:space="preserve">
<style type="text/css">
	.st0{opacity:0.5568;enable-background:new    ;}
</style>
<g>
	<g class="st0">
		<g>
			<g>
				<defs>
					<path id="SVGID_1_" d="M71.8,20.2H29.9l6.4,13.4c1.4,2.9,5.2,4.5,8.5,3.6l24.5-7c0.6-0.2,1.3-0.9,1.3-1.5L71.8,20.2z
						 M74.6,15.7c0.7,0,1.4,0.3,1.8,0.8c0.5,0.5,0.7,1.1,0.6,1.8l-1.5,11c-0.3,2.3-2.4,4.6-4.7,5.2l-24.5,7C45.1,41.8,44,42,42.9,42
						c-4.8,0-9.2-2.6-11.1-6.6l-7.2-15.2h0c-1.3,0-2.4-1-2.4-2.3c0-1.2,1.1-2.3,2.4-2.3H74.6z"/>
				</defs>
				<use xlink:href="#SVGID_1_"  style="overflow:visible;fill-rule:evenodd;clip-rule:evenodd;fill:#58595B;"/>
				<clipPath id="SVGID_2_">
					<use xlink:href="#SVGID_1_"  style="overflow:visible;"/>
				</clipPath>
			</g>
			<g>
				<defs>
					<path id="SVGID_3_" d="M67.4,43.9l-8,2.5l6.5,14.8h1.5V43.9z M27,46.6c-4,0-7.3,3.3-7.3,7.3c0,4,3.3,7.3,7.3,7.3
						c4,0,7.2-3.2,7.3-7.1l-6.6,2c-0.2,0.1-0.5,0.1-0.7,0.1c-1,0-1.9-0.7-2.3-1.7c-0.4-1.2,0.3-2.6,1.6-2.9l6.6-2
						C31.5,47.7,29.3,46.6,27,46.6z M88.3,32.5c0.6-0.2,1.2-0.1,1.8,0.2c0.5,0.3,0.9,0.8,1.1,1.3l0,0l0,0c0.4,1.2-0.3,2.6-1.6,2.9
						l-17.5,5.4v19.8c0,2-1.6,3.6-3.6,3.6h-2.8c-1.6,0-3.3-1.1-4-2.6l-6.9-15.5l-15.9,4.9c0,0.4,0.1,0.8,0.1,1.2
						c0,6.6-5.4,12-12.1,12s-12.1-5.4-12.1-12c0-6.6,5.4-12,12.1-12c4.4,0,8.5,2.4,10.6,6.3L88.3,32.5z"/>
				</defs>
				<use xlink:href="#SVGID_3_"  style="overflow:visible;fill-rule:evenodd;clip-rule:evenodd;fill:#58595B;"/>
				<clipPath id="SVGID_4_">
					<use xlink:href="#SVGID_3_"  style="overflow:visible;"/>
				</clipPath>
			</g>
		</g>
	</g>
</g>
</svg>
