<?xml version="1.0" encoding="utf-8"?>
<!-- Generator: Adobe Illustrator 24.2.3, SVG Export Plug-In . SVG Version: 6.00 Build 0)  -->
<svg version="1.1" id="Capa_1" xmlns="http://www.w3.org/2000/svg" xmlns:xlink="http://www.w3.org/1999/xlink" x="0px" y="0px"
	 viewBox="0 0 384 300" style="enable-background:new 0 0 384 300;" xml:space="preserve">
<style type="text/css">
	.st0{clip-path:url(#SVGID_2_);fill:#FFFFFF;}
	.st1{clip-path:url(#SVGID_4_);fill:#FFFFFF;}
</style>
<g>
	<defs>
		<path id="SVGID_1_" d="M283.5,55.2H78.3l31.2,65.6c6.8,14.3,25.5,22.2,41.6,17.6L271.2,104c2.7-0.8,6.2-4.6,6.6-7.2L283.5,55.2z
			 M297.1,33.1c3.4,0,6.7,1.4,9,3.8c2.3,2.4,3.3,5.6,2.9,8.7l-7.4,54c-1.5,11-11.7,22.3-23.2,25.6l-120.1,34.4
			c-5.2,1.5-10.8,2.3-16.4,2.3c-23.4,0-45.2-12.9-54.3-32.1L52.1,55.2h-0.2c-6.6,0-12-5-12-11.1c0-6.1,5.4-11.1,12-11.1H297.1z"/>
	</defs>
	<use xlink:href="#SVGID_1_"  style="overflow:visible;fill-rule:evenodd;clip-rule:evenodd;fill:#FFFFFF;"/>
	<clipPath id="SVGID_2_">
		<use xlink:href="#SVGID_1_"  style="overflow:visible;"/>
	</clipPath>
	<rect x="28.3" y="21.4" class="st0" width="292.8" height="152.1"/>
</g>
<g>
	<defs>
		<path id="SVGID_3_" d="M262.1,171.1l-39.3,12.1l32,72.5h7.3V171.1z M63.9,184.4c-19.8,0-35.9,16-35.9,35.7s16.1,35.7,35.9,35.7
			c19.4,0,35.3-15.5,35.9-34.7l-32.4,10c-1.1,0.3-2.3,0.5-3.4,0.5c-5.1,0-9.5-3.3-11.1-8.1c-1.9-6.1,1.5-12.5,7.6-14.4l32.4-10
			C86.2,189.9,75.4,184.4,63.9,184.4z M364.3,115.5c3-0.9,6.1-0.6,8.8,0.8c2.7,1.4,4.6,3.7,5.6,6.5l0,0l0.1,0.2
			c1.9,6.1-1.5,12.5-7.6,14.4L285.2,164V261c0,9.8-8,17.7-17.8,17.7h-13.9c-8,0-16.2-5.3-19.4-12.6l-33.6-76.1l-77.8,24
			c0.2,2,0.3,4,0.3,6c0,32.4-26.5,58.7-59,58.7s-59-26.3-59-58.7c0-32.4,26.5-58.7,59-58.7c21.5,0,41.6,12,51.9,30.7L364.3,115.5z"
			/>
	</defs>
	<use xlink:href="#SVGID_3_"  style="overflow:visible;fill-rule:evenodd;clip-rule:evenodd;fill:#FFFFFF;"/>
	<clipPath id="SVGID_4_">
		<use xlink:href="#SVGID_3_"  style="overflow:visible;"/>
	</clipPath>
	<rect x="-6.8" y="102.9" class="st1" width="399.2" height="187.6"/>
</g>
</svg>
