<?xml version="1.0" encoding="utf-8"?>
<!-- Generator: Adobe Illustrator 24.2.3, SVG Export Plug-In . SVG Version: 6.00 Build 0)  -->
<svg version="1.1" id="Capa_1" xmlns="http://www.w3.org/2000/svg" xmlns:xlink="http://www.w3.org/1999/xlink" x="0px" y="0px"
	 viewBox="0 0 300 300" style="enable-background:new 0 0 300 300;" xml:space="preserve">
<style type="text/css">
	.st0{clip-path:url(#SVGID_2_);fill:#FFFFFF;}
</style>
<g>
	<defs>
		<path id="SVGID_1_" d="M150,38.1c-23.3,0-42.2,18.9-42.2,42.2s18.9,42.2,42.2,42.2c23.3,0,42.1-18.9,42.1-42.2
			S173.3,38.1,150,38.1z M150,10c38.8,0,70.2,31.5,70.2,70.2s-31.5,70.2-70.2,70.2c-38.8,0-70.2-31.5-70.2-70.2S111.2,10,150,10z
			 M206.2,178.6c38.8,0,70.3,31.5,70.3,70.2V277c0,7.8-6.3,14-14.1,14c-7.8,0-14-6.3-14-14v-28.1c0-23.3-18.9-42.2-42.2-42.2H93.8
			c-23.3,0-42.2,18.9-42.2,42.2V277c0,7.8-6.3,14-14.1,14s-14-6.3-14-14v-28.1c0-38.8,31.5-70.2,70.2-70.2H206.2z"/>
	</defs>
	<use xlink:href="#SVGID_1_"  style="overflow:visible;fill:#FFFFFF;"/>
	<clipPath id="SVGID_2_">
		<use xlink:href="#SVGID_1_"  style="overflow:visible;"/>
	</clipPath>
	<rect x="9.5" y="-4.1" class="st0" width="281" height="309.1"/>
</g>
</svg>
