<svg width="76" height="56" viewBox="0 0 76 56" fill="none" xmlns="http://www.w3.org/2000/svg">
<mask id="mask0_0_65" style="mask-type:alpha" maskUnits="userSpaceOnUse" x="0" y="0" width="76" height="56">
<path fill-rule="evenodd" clip-rule="evenodd" d="M0 0H76V56H0V0Z" fill="white"/>
</mask>
<g mask="url(#mask0_0_65)">
<path fill-rule="evenodd" clip-rule="evenodd" d="M73.6895 34.2603C72.0351 33.9204 71.0173 32.748 69.7842 31.32C68.2422 29.5342 66.3594 27.3549 62.7506 26.9488L63.3266 20.2832C69.2289 21.1631 73.7735 26.3025 73.7735 32.4931C73.7735 32.9137 73.7423 33.5248 73.6895 34.2603V34.2603ZM72.4177 46.3329H68.4443C67.8973 42.15 64.3398 38.9104 60.043 38.9104C55.7466 38.9104 52.1891 42.1502 51.6421 46.3329H33.7853C33.238 42.15 29.6807 38.9104 25.3841 38.9104C21.0877 38.9104 17.53 42.1502 16.983 46.3329H13.2505L14.1856 36.6065H54.1057V36.6071H54.1074C54.1446 36.6071 54.1816 36.605 54.2181 36.6012C54.2249 36.6006 54.2316 36.5992 54.2384 36.5983C54.2675 36.5948 54.2966 36.5906 54.325 36.5849C54.3373 36.5824 54.3493 36.579 54.3615 36.576C54.3837 36.5706 54.4062 36.5653 54.4277 36.5588C54.4425 36.5543 54.4568 36.5489 54.471 36.5438C54.4897 36.5372 54.5084 36.5308 54.5265 36.5233C54.5423 36.5169 54.5571 36.5097 54.5723 36.5025C54.5887 36.4949 54.6054 36.4872 54.6211 36.4788C54.6364 36.4708 54.6511 36.4621 54.6662 36.4534C54.6814 36.4444 54.6967 36.4353 54.7113 36.4257C54.7257 36.4163 54.7394 36.4064 54.7534 36.3966C54.7679 36.3861 54.7822 36.3753 54.7966 36.3641C54.8093 36.3538 54.8219 36.3431 54.8344 36.3322C54.8484 36.3199 54.8622 36.3074 54.8757 36.2944C54.8868 36.2834 54.8981 36.2722 54.9091 36.2607C54.9224 36.2466 54.9353 36.2321 54.9481 36.2173C54.9582 36.2056 54.9679 36.194 54.9774 36.182C54.9897 36.1663 55.0015 36.1501 55.0131 36.1338C55.0217 36.1215 55.0303 36.1093 55.0387 36.0967C55.0495 36.0798 55.0597 36.0624 55.0697 36.0448C55.0772 36.0316 55.085 36.0184 55.0918 36.005C55.1011 35.9873 55.1092 35.9694 55.1178 35.9513C55.1243 35.9367 55.131 35.9225 55.1369 35.9076C55.144 35.8899 55.1501 35.8718 55.1565 35.8537C55.1622 35.8377 55.1679 35.8217 55.1728 35.8052C55.1776 35.7879 55.1816 35.7701 55.1862 35.7524C55.1904 35.7346 55.1951 35.7169 55.1987 35.6988C55.2019 35.6812 55.2042 35.6632 55.2067 35.6453C55.2094 35.6267 55.2125 35.6085 55.2143 35.5896C55.2146 35.5869 55.2151 35.5844 55.2153 35.5817L55.7734 29.1253H61.527C64.938 29.1253 66.4764 30.9067 68.1049 32.7929C69.4489 34.3492 70.949 36.0856 73.4993 36.5092C73.1753 39.9611 72.6519 44.3925 72.4177 46.3329V46.3329ZM60.0427 53.7554C56.5967 53.7554 53.793 50.9293 53.793 47.4555C53.793 43.9818 56.5968 41.1556 60.0427 41.1556C63.4889 41.1556 66.2926 43.9818 66.2926 47.4555C66.2926 50.9293 63.4889 53.7554 60.0427 53.7554V53.7554ZM25.3841 53.7554C21.9378 53.7554 19.1343 50.9293 19.1343 47.4555C19.1343 43.9818 21.938 41.1556 25.3841 41.1556C28.8303 41.1556 31.6341 43.9818 31.6341 47.4555C31.6341 50.9293 28.8303 53.7554 25.3841 53.7554V53.7554ZM56.5486 20.1488H61.1031L60.5214 26.8814H55.9668L56.5486 20.1488ZM61.5273 17.9041H56.7426L58.1842 1.21928C58.1869 1.18906 58.1873 1.15928 58.1875 1.12951C58.1875 1.12696 58.1878 1.12457 58.1878 1.12203V1.12083C58.1878 0.66671 57.916 0.266456 57.5165 0.0924393C57.5131 0.090943 57.5099 0.0891475 57.5066 0.0876512C57.4818 0.0771773 57.4561 0.0681996 57.4303 0.0595212C57.4205 0.056379 57.4113 0.0524887 57.4016 0.0494962C57.3807 0.0430622 57.3589 0.0379749 57.3375 0.0327379C57.3222 0.0291468 57.3078 0.0248076 57.2924 0.0218151C57.2735 0.0180744 57.2539 0.0156804 57.2346 0.0128374C57.2165 0.0101442 57.1987 0.00700197 57.1805 0.00535607C57.1775 0.00505682 57.1745 0.00445831 57.1716 0.00415905C57.152 0.00236352 57.1325 0.00266278 57.1131 0.00191464C57.1 0.00146576 57.0873 -3.05176e-05 57.0742 -3.05176e-05H57.0604H57.0568H34.2907C33.6762 -3.05176e-05 33.1774 0.502718 33.1774 1.12218C33.1774 1.74014 33.6762 2.24438 34.2907 2.24438H55.8609L53.6453 27.8868C53.645 27.8887 53.645 27.8907 53.6445 27.8926L53.0855 34.3627H14.4012L15.0482 27.6297H22.4139C23.0288 27.6297 23.5272 27.1273 23.5272 26.5075C23.5272 25.8878 23.0288 25.3853 22.4139 25.3853H15.264L16.6304 11.1715H28.3532C28.9683 11.1715 29.4665 10.669 29.4665 10.0493C29.4665 9.42949 28.9683 8.92704 28.3532 8.92704H16.8463L17.4887 2.24438H29.8376C30.4506 2.24438 30.9508 1.74014 30.9508 1.12218C30.9508 0.502718 30.4506 -3.05176e-05 29.8376 -3.05176e-05H16.4781C16.4775 -3.05176e-05 16.4771 0.00011911 16.4765 0.00011911C15.9535 -3.05176e-05 15.4999 0.371046 15.3902 0.885465C15.3895 0.889206 15.3881 0.892797 15.3874 0.896537C15.3818 0.924518 15.378 0.953097 15.3745 0.981825C15.3734 0.990952 15.3714 0.999631 15.3705 1.00876C15.3703 1.01055 15.3699 1.0122 15.3697 1.01399L14.6091 8.92704H1.11329C0.498307 8.92704 0 9.42949 0 10.0493C0 10.669 0.498307 11.1715 1.11329 11.1715H14.3933L13.0272 25.3853H9.05503C8.44005 25.3853 7.94174 25.8878 7.94174 26.5075C7.94174 27.1273 8.44005 27.6297 9.05503 27.6297H12.8114L12.0674 35.3686C12.0673 35.3698 12.0673 35.371 12.0671 35.3721L10.9169 47.3391C10.9167 47.3405 10.9166 47.342 10.9164 47.3432L10.916 47.3475C10.9145 47.3631 10.9148 47.3783 10.9138 47.3939C10.9127 47.4145 10.9107 47.4347 10.9107 47.4557C10.9107 47.4566 10.9108 47.4575 10.9108 47.4585C10.9108 47.4874 10.9129 47.5158 10.9151 47.5443C10.9158 47.5534 10.9156 47.5627 10.9166 47.5716C10.9196 47.6007 10.9246 47.6292 10.9297 47.6577C10.9311 47.666 10.9319 47.6746 10.9337 47.6828C10.9378 47.7044 10.9439 47.7252 10.9495 47.7463C10.9534 47.7611 10.9565 47.7762 10.961 47.7907C10.9623 47.7947 10.9642 47.7986 10.9653 47.8028C11.0192 47.9698 11.1106 48.1197 11.2299 48.2421C11.2322 48.2444 11.2341 48.2469 11.2362 48.249C11.2481 48.261 11.261 48.2717 11.2736 48.2831C11.3502 48.354 11.4369 48.4142 11.5317 48.4613C11.5515 48.4712 11.5711 48.4815 11.5911 48.49C11.5972 48.4927 11.6037 48.4945 11.6099 48.4969C11.6379 48.5082 11.6659 48.5189 11.6949 48.5281C11.6977 48.5288 11.7 48.5292 11.7027 48.5301C11.7357 48.54 11.7691 48.5487 11.8031 48.5557C11.8074 48.5566 11.8121 48.5569 11.8163 48.5578C11.8488 48.564 11.8811 48.5692 11.9144 48.5725C11.915 48.5725 11.9156 48.5726 11.9163 48.5728C11.9528 48.5764 11.9891 48.5782 12.0251 48.5782C12.0256 48.5782 12.026 48.578 12.0266 48.578H16.9828C17.53 52.7606 21.0874 56 25.3838 56C29.6802 56 33.2374 52.7606 33.7847 48.578H51.6418C52.1891 52.7606 55.7463 56 60.0427 56C64.3391 56 67.8967 52.7606 68.444 48.578H73.4014C73.4019 48.578 73.4028 48.5782 73.4036 48.5782C73.4407 48.5782 73.4772 48.5759 73.5134 48.5723C73.52 48.5717 73.5262 48.5704 73.5327 48.5696C73.5618 48.5662 73.5905 48.5622 73.6187 48.5565C73.6308 48.5541 73.6427 48.5508 73.6547 48.548C73.6764 48.5429 73.6985 48.5375 73.7197 48.531C73.7344 48.5267 73.7484 48.5216 73.7626 48.5167C73.7809 48.5104 73.7992 48.5038 73.8171 48.4965C73.8327 48.4903 73.8473 48.4836 73.8623 48.4769C73.8786 48.4692 73.8951 48.4615 73.9108 48.4532C73.9261 48.4455 73.9405 48.4374 73.955 48.429C73.9705 48.42 73.9855 48.4107 74.0006 48.4012C74.0144 48.3922 74.0284 48.3831 74.0417 48.3735C74.057 48.3629 74.0712 48.3516 74.0859 48.3403C74.0981 48.3305 74.1104 48.321 74.1223 48.3108C74.1378 48.2978 74.152 48.2842 74.1667 48.2702C74.1766 48.2605 74.1873 48.2509 74.197 48.2408C74.2124 48.2249 74.2271 48.2082 74.242 48.1912C74.2497 48.1821 74.2578 48.1733 74.2654 48.164C74.2817 48.1437 74.2967 48.1227 74.3114 48.1016C74.3166 48.0943 74.3223 48.0874 74.327 48.0799C74.3451 48.0525 74.3622 48.0244 74.3781 47.9954C74.3791 47.9936 74.3803 47.9919 74.381 47.99C74.3978 47.9589 74.4133 47.927 74.4272 47.8941C74.4309 47.8847 74.434 47.8749 74.4376 47.8655C74.4468 47.8423 74.4556 47.8191 74.4631 47.795C74.468 47.7795 74.4717 47.7635 74.476 47.7477C74.4808 47.729 74.486 47.7105 74.4903 47.6915C74.4939 47.6746 74.4964 47.6572 74.4991 47.64C74.5017 47.6249 74.5048 47.6101 74.5069 47.5947C74.554 47.2134 75.4257 40.1631 75.8151 35.6043C75.8155 35.5999 75.8157 35.5954 75.8161 35.5911C75.9282 34.2769 76.0001 33.1703 76.0001 32.4928C76.0001 24.4487 69.5077 17.9041 61.5273 17.9041V17.9041Z" fill="#153C6A"/>
</g>
<path fill-rule="evenodd" clip-rule="evenodd" d="M26 49.8182C24.9974 49.8182 24.1818 49.0026 24.1818 48C24.1818 46.9974 24.9974 46.1818 26 46.1818C27.0028 46.1818 27.8182 46.9974 27.8182 48C27.8182 49.0026 27.0026 49.8182 26 49.8182M26 44C23.7945 44 22 45.7943 22 48C22 50.2057 23.7945 52 26 52C28.2055 52 30 50.2057 30 48C30 45.7945 28.2055 44 26 44" fill="#153C6A"/>
<path fill-rule="evenodd" clip-rule="evenodd" d="M60 49.8182C58.9972 49.8182 58.1818 49.0026 58.1818 48C58.1818 46.9974 58.9972 46.1818 60 46.1818C61.0026 46.1818 61.8182 46.9974 61.8182 48C61.8182 49.0026 61.0026 49.8182 60 49.8182M60 44C57.7945 44 56 45.7943 56 48C56 50.2057 57.7945 52 60 52C62.2055 52 64 50.2057 64 48C64 45.7945 62.2055 44 60 44" fill="#153C6A"/>
<path fill-rule="evenodd" clip-rule="evenodd" d="M10.8387 19H5.16131C4.5198 19 4 19.4477 4 20C4 20.5523 4.5198 21 5.16131 21H10.8387C11.4802 21 12 20.5523 12 20C12 19.4477 11.4802 19 10.8387 19" fill="#153C6A"/>
</svg>
