<svg width="68" height="68" viewBox="0 0 68 68" fill="none" xmlns="http://www.w3.org/2000/svg">
<path fill-rule="evenodd" clip-rule="evenodd" d="M22.97 52.2069C22.9505 52.1109 22.9221 52.0164 22.8846 51.9249C22.8471 51.835 22.8005 51.7478 22.7465 51.6668C22.6925 51.5844 22.6295 51.5079 22.5607 51.4387C22.4917 51.3697 22.415 51.3067 22.3325 51.2528C22.2515 51.1987 22.1645 51.1523 22.0731 51.1148C21.983 51.0773 21.8885 51.0473 21.7925 51.0291C21.599 50.9903 21.3995 50.9903 21.2075 51.0291C21.1115 51.0473 21.017 51.0773 20.9255 51.1148C20.8356 51.1523 20.7485 51.1987 20.6675 51.2528C20.5852 51.3067 20.5085 51.3697 20.4395 51.4387C20.3705 51.5079 20.3075 51.5844 20.2537 51.6668C20.1982 51.7478 20.153 51.835 20.1155 51.9249C20.078 52.0164 20.0481 52.1109 20.03 52.2069C20.0106 52.3031 20 52.4021 20 52.4995C20 52.5972 20.0106 52.6962 20.03 52.7921C20.0481 52.8881 20.078 52.9826 20.1155 53.0728C20.153 53.1642 20.1982 53.2512 20.2537 53.3322C20.3075 53.4149 20.3705 53.4914 20.4395 53.5604C20.5085 53.6293 20.5852 53.6923 20.6675 53.7464C20.7485 53.8005 20.8356 53.8471 20.9255 53.8846C21.017 53.9221 21.1115 53.9521 21.2075 53.97C21.3036 53.9896 21.4025 54 21.5 54C21.5976 54 21.6965 53.9896 21.7925 53.97C21.8885 53.9521 21.983 53.9221 22.0731 53.8846C22.1645 53.8471 22.2515 53.8003 22.3325 53.7464C22.415 53.6923 22.4917 53.6293 22.5607 53.5604C22.6295 53.4914 22.6925 53.4149 22.7465 53.3322C22.8005 53.2512 22.8471 53.1643 22.8846 53.0728C22.9221 52.9826 22.9505 52.8881 22.97 52.7921C22.9895 52.6962 23 52.5972 23 52.4995C23 52.4021 22.9895 52.3031 22.97 52.2069" fill="#153C6A"/>
<path fill-rule="evenodd" clip-rule="evenodd" d="M57.107 57.1891L36.4972 64.5535C36.4791 64.5599 36.4546 64.5695 36.4368 64.5767C36.4187 64.5842 36.4006 64.5918 36.3828 64.6001C33.5124 65.9166 30.784 65.1283 29.7147 64.7136C25.6734 62.8988 23.5164 61.6574 21.9404 60.7504C19.7493 59.4897 18.6935 58.8818 15.7116 58.636V47.8734C16.9808 45.7974 19.4421 43.6724 22.0956 43.6724C26.6464 43.6724 28.5747 46.6261 28.6505 46.7455C28.8139 47.0107 29.0653 47.2107 29.3608 47.3108L40.0023 50.9154C41.7019 51.5519 42.6001 53.0046 42.1873 54.453C41.9966 55.1219 41.5565 55.6769 40.9477 56.0153C40.3443 56.3509 39.6467 56.4339 38.9818 56.2503L26.9854 52.4562C26.2799 52.2331 25.5278 52.6228 25.3045 53.3265C25.081 54.0299 25.4713 54.781 26.1764 55.0039L38.1936 58.8045C38.2064 58.8084 38.2191 58.8123 38.2319 58.816C38.7117 58.9521 39.2002 59.0194 39.6857 59.0194C40.5745 59.0194 41.4535 58.7936 42.2513 58.3499C43.4849 57.664 44.3769 56.5397 44.7631 55.1839C44.7939 55.0758 44.8212 54.9674 44.8449 54.8592L54.8984 52.0799C56.3504 51.5849 58.2564 51.4065 59.1051 53.3569C59.9833 55.6469 57.7005 56.9068 57.107 57.1891V57.1891ZM10.6391 60.3624H13.0336V48.6777H10.6391V60.3624ZM2.67796 62.8525H7.96118V48.6777H2.67796V62.8525ZM61.5922 52.3662C61.587 52.353 61.5816 52.3396 61.576 52.3265C60.3436 49.4486 57.4533 48.3849 54.0327 49.551L44.7043 52.1253C44.165 50.4953 42.8197 49.1083 40.9175 48.4039C40.9058 48.3996 40.894 48.3952 40.8821 48.3912L30.628 44.9181C29.7745 43.8171 27.1011 41 22.0955 41C18.5974 41 15.503 43.3949 13.7325 46.0053H1.33898C0.599328 46.0053 0 46.6034 0 47.3416V64.1889C0 64.9268 0.599328 65.5252 1.33898 65.5252H9.30016C10.0397 65.5252 10.6391 64.9268 10.6391 64.1889V63.0351H14.3726C15.1121 63.0351 15.7116 62.4368 15.7116 61.6988V61.3142C17.888 61.5037 18.6038 61.9157 20.6026 63.0659C22.1398 63.9507 24.4631 65.2875 28.6468 67.1648C28.6663 67.1736 28.6859 67.1818 28.7056 67.1897C29.5086 67.5048 31.0782 68 33.0135 68C34.3605 68 35.885 67.7599 37.4496 67.0522L58.0688 59.6845C58.1055 59.6713 58.1417 59.6567 58.177 59.6404C60.1476 58.7355 63.0841 56.1854 61.5922 52.3662V52.3662Z" fill="#153C6A"/>
<path fill-rule="evenodd" clip-rule="evenodd" d="M47.9715 17.2071C47.952 17.111 47.9236 17.0165 47.8846 16.925C47.8471 16.835 47.802 16.7479 47.7465 16.6669C47.6927 16.5844 47.6297 16.5079 47.5607 16.4389C47.4917 16.3698 47.415 16.3068 47.3325 16.2528C47.2515 16.1988 47.1645 16.1523 47.0747 16.1148C46.983 16.0773 46.8885 16.0473 46.794 16.0293C46.6005 15.9902 46.401 15.9902 46.2075 16.0293C46.1116 16.0473 46.0171 16.0773 45.927 16.1148C45.8356 16.1523 45.7486 16.1988 45.6676 16.2528C45.5851 16.3068 45.5085 16.3698 45.4395 16.4389C45.3705 16.5079 45.3075 16.5844 45.2537 16.6669C45.1997 16.7479 45.153 16.835 45.1155 16.925C45.078 17.0165 45.0481 17.111 45.0302 17.2071C45.0106 17.3031 45 17.4021 45 17.4996C45 17.5971 45.0106 17.6962 45.0302 17.7922C45.0481 17.8882 45.078 17.9827 45.1155 18.0728C45.153 18.1643 45.1997 18.2513 45.2537 18.3323C45.3075 18.4149 45.3705 18.4914 45.4395 18.5604C45.5085 18.6294 45.5851 18.6924 45.6676 18.7464C45.7486 18.8005 45.8356 18.847 45.927 18.8845C46.0171 18.922 46.1116 18.9505 46.2075 18.97C46.3036 18.9895 46.4025 19 46.5 19C46.5976 19 46.6965 18.9895 46.794 18.97C46.8885 18.9505 46.983 18.922 47.0747 18.8845C47.1645 18.847 47.2515 18.8005 47.3325 18.7464C47.415 18.6924 47.4917 18.6294 47.5607 18.5604C47.6297 18.4914 47.6927 18.4149 47.7465 18.3323C47.802 18.2513 47.8471 18.1643 47.8846 18.0728C47.9236 17.9827 47.952 17.8882 47.9715 17.7922C47.9911 17.6962 48 17.5971 48 17.4996C48 17.4021 47.9911 17.3031 47.9715 17.2071" fill="#153C6A"/>
<mask id="mask0_0_9" style="mask-type:alpha" maskUnits="userSpaceOnUse" x="0" y="0" width="68" height="68">
<path fill-rule="evenodd" clip-rule="evenodd" d="M0 68H68V0H0V68Z" fill="white"/>
</mask>
<g mask="url(#mask0_0_9)">
<path fill-rule="evenodd" clip-rule="evenodd" d="M60.1104 21.4018H65.3461V7.20792H60.1104V21.4018ZM55.0835 21.4018H57.4565V9.70129H55.0835V21.4018ZM52.4294 22.2067C51.1718 24.2858 48.7326 26.4137 46.1028 26.4137C45.6108 26.4137 45.1497 26.3784 44.7185 26.3155C44.7168 26.3152 44.7151 26.315 44.7134 26.3147C41.8477 25.895 40.3062 24.2526 39.7981 23.6023C39.771 23.5622 39.6557 23.41 39.6386 23.3847C39.484 23.1061 39.2305 22.8821 38.9073 22.7715L28.357 19.1607C26.6734 18.5235 25.7834 17.0697 26.1913 15.6197C26.1915 15.6188 26.1918 15.6179 26.1921 15.6169C26.1925 15.6159 26.1927 15.6146 26.193 15.6136C26.3826 14.9459 26.8181 14.392 27.42 14.0539C28.018 13.7179 28.7092 13.6346 29.3684 13.8188L41.2569 17.6177C41.9557 17.8413 42.7014 17.4509 42.9228 16.7464C43.1441 16.0419 42.7573 15.2899 42.0587 15.0666L32.6035 12.0452L32.521 11.962C32.5202 11.9612 32.5194 11.9602 32.5184 11.9594L27.6233 7.02326L31.8308 5.50401C31.845 5.49879 31.8625 5.49223 31.8766 5.48648C31.8802 5.48501 31.8871 5.48233 31.8905 5.48086C31.9086 5.4735 31.9264 5.46574 31.944 5.45758C34.7884 4.13931 37.4922 4.92837 38.5521 5.34398C42.5572 7.16122 44.6949 8.40416 46.2567 9.31231C48.4282 10.5751 49.4745 11.1835 52.4294 11.4295V22.2067ZM40.4601 29.8472C39.9479 29.0056 39.6581 28.045 39.6123 27.0646C40.2479 27.5279 41.0247 27.982 41.9525 28.3423L40.4601 29.8472ZM27.4502 21.6761C27.4618 21.6804 27.4735 21.6847 27.4853 21.6887L30.1387 22.5969C29.9383 23.5088 29.4849 24.3472 28.8174 25.0204C26.9029 26.9507 23.7876 26.951 21.8735 25.0204C19.959 23.0899 19.959 19.9488 21.8735 18.0182C22.3353 17.5523 22.8803 17.1882 23.4741 16.9414C23.719 18.9969 25.1868 20.8291 27.4502 21.6761V21.6761ZM35.5177 34.8312C32.5854 32.6862 28.5789 32.6862 25.6466 34.8312L12.1447 21.216C13.1809 19.7789 13.7404 18.0526 13.7404 16.2385C13.7404 14.4242 13.1811 12.698 12.1447 11.2609L15.1724 8.20799C16.5976 9.2529 18.3093 9.81703 20.1085 9.81703C21.9077 9.81703 23.6195 9.2529 25.0447 8.20799L27.9147 11.1021C27.2954 11.1943 26.6915 11.4001 26.1284 11.7166C25.1772 12.251 24.4309 13.0513 23.9662 14.0195C22.4694 14.2991 21.0837 15.0298 19.9967 16.1258C17.0475 19.0998 17.0475 23.9387 19.9968 26.9127C21.4713 28.3996 23.4083 29.1431 25.3453 29.1431C27.2823 29.1431 29.2194 28.3997 30.694 26.9127C31.6534 25.9453 32.3255 24.7563 32.6621 23.4605L37.1425 24.9938C36.6381 27.3498 37.1547 29.8285 38.5481 31.7754L35.5177 34.8312ZM30.5822 39.808L27.5583 36.7588C29.4045 35.6099 31.7596 35.6099 33.6059 36.7588L30.5822 39.808ZM10.233 19.2883L7.2086 16.2385L10.233 13.1887C10.789 14.0953 11.0865 15.1434 11.0865 16.2385C11.0865 17.3335 10.7891 18.3817 10.233 19.2883V19.2883ZM20.1084 3.23035L23.1328 6.28009C22.2338 6.84075 21.1944 7.14074 20.1084 7.14074C19.0223 7.14074 17.983 6.84088 17.084 6.28009L20.1084 3.23035ZM66.673 4.53176H58.7834C58.0505 4.53176 57.4565 5.13082 57.4565 5.86984V7.02513H53.7565C53.0237 7.02513 52.4296 7.62419 52.4296 8.36321V8.74831C50.2728 8.55844 49.5634 8.14604 47.5826 6.99423C46.0593 6.10842 43.7569 4.76967 39.6106 2.88981C39.5913 2.88098 39.572 2.87282 39.5522 2.86506C38.2026 2.32956 34.6653 1.27596 30.8873 3.00248L25.5477 4.93038L21.0468 0.391889C20.5286 -0.13063 19.6884 -0.13063 19.1703 0.391889L4.39361 15.2923C3.91564 15.7744 3.82395 16.6103 4.39361 17.1847L29.6437 42.6466C30.0478 43.0542 30.9939 43.1774 31.5204 42.6466L45.0109 29.0432C45.3616 29.0737 45.7256 29.0901 46.1028 29.0901C49.5696 29.0901 52.6362 26.692 54.3905 24.0782H66.673C67.4059 24.0782 68 23.4792 68 22.7402V5.86984C68 5.13082 67.4059 4.53176 66.673 4.53176V4.53176Z" fill="#153C6A"/>
</g>
</svg>
