<svg width="47" height="63" viewBox="0 0 47 63" fill="none" xmlns="http://www.w3.org/2000/svg">
<path fill-rule="evenodd" clip-rule="evenodd" d="M23.5 6.53333C32.341 6.53333 39.5333 13.9201 39.5333 23.0001C39.5333 32.0799 32.341 39.4665 23.5 39.4665C14.6591 39.4665 7.46667 32.0799 7.46667 23.0001C7.46667 13.9201 14.6591 6.53333 23.5 6.53333M5 23.0001C5 33.4767 13.299 42 23.5 42C33.7011 42 42 33.4767 42 23.0001C42 12.5233 33.7011 4 23.5 4C13.299 4 5 12.5233 5 23.0001" fill="#153C6A"/>
<path fill-rule="evenodd" clip-rule="evenodd" d="M20.8402 20.2099C21.2442 20.149 21.5934 19.8949 21.7763 19.5289L24.0002 15.071L26.224 19.5289C26.4069 19.8949 26.7561 20.149 27.1602 20.2099L32.0751 20.9515L28.5332 24.4481C28.2423 24.7355 28.1091 25.1469 28.1758 25.5509L28.9907 30.4656L24.5783 28.1697C24.3974 28.0753 24.1988 28.0281 24.0002 28.0281C23.8015 28.0281 23.603 28.0753 23.4215 28.1697L19.0091 30.4656L19.8241 25.5509C19.8913 25.1469 19.758 24.7355 19.4667 24.4481L15.9252 20.9515L20.8402 20.2099ZM12.3744 20.9781L17.2403 25.7827L16.1209 32.5355C16.0428 33.0059 16.2365 33.4796 16.6215 33.7597C17.006 34.0398 17.5154 34.0778 17.9377 33.8584L24.0002 30.7036L30.0621 33.8584C30.481 34.0763 30.9905 34.0422 31.3784 33.7597C31.7632 33.4796 31.9569 33.0059 31.879 32.5355L30.7595 25.7827L35.6254 20.9781C35.9644 20.6438 36.0855 20.1465 35.9384 19.693C35.7912 19.2398 35.4013 18.9092 34.9311 18.8378L28.178 17.8191L25.1226 11.6954C24.9104 11.2692 24.4753 11 24.0002 11C23.5245 11 23.0901 11.2692 22.8772 11.6954L19.8216 17.8191L13.0687 18.8378C12.5985 18.9087 12.2086 19.2398 12.0615 19.693C11.9144 20.1465 12.036 20.6438 12.3744 20.9781V20.9781Z" fill="#153C6A"/>
<path fill-rule="evenodd" clip-rule="evenodd" d="M25 1C25 1.5524 24.3285 2 23.5001 2C22.6715 2 22 1.5524 22 1C22 0.447595 22.6715 0 23.5001 0C24.3285 0 25 0.447595 25 1" fill="#153C6A"/>
<mask id="mask0_0_269" style="mask-type:alpha" maskUnits="userSpaceOnUse" x="0" y="0" width="47" height="63">
<path fill-rule="evenodd" clip-rule="evenodd" d="M0 0H47V63H0V0Z" fill="white"/>
</mask>
<g mask="url(#mask0_0_269)">
<path fill-rule="evenodd" clip-rule="evenodd" d="M36.3723 51.0854C35.7674 50.959 35.162 51.3017 34.9552 51.8878L32.525 58.7771L25.5739 46.486C29.8082 46.1069 33.8792 44.5753 37.3184 42.0609L43.2156 52.5146L36.3723 51.0854ZM14.4757 58.7771L12.0448 51.8878C11.8381 51.3017 11.2331 50.959 10.6278 51.0854L3.78493 52.5146L9.68227 42.0609C13.1208 44.5753 17.1923 46.1069 21.4261 46.486L14.4757 58.7771ZM17.6711 0.0390284C7.26655 2.71032 -6.10352e-05 12.1284 -6.10352e-05 22.9422C-6.10352e-05 29.6585 2.80764 35.9871 7.73611 40.469L0.2846 53.6776C0.0449246 54.1027 0.0749151 54.6295 0.36094 55.0241C0.646964 55.4193 1.13586 55.6092 1.61174 55.5095L10.0741 53.7421L13.0484 62.1718C13.2097 62.6306 13.6228 62.9519 14.105 62.9951C14.5872 63.0384 15.0496 62.7939 15.2888 62.3706L23.5003 47.8505L31.7114 62.3706C31.9327 62.7619 32.3443 62.9995 32.7859 62.9995C32.8221 62.9995 32.8588 62.998 32.895 62.9951C33.3772 62.9519 33.7904 62.6301 33.9522 62.1718L36.926 53.7421L45.3883 55.5095C45.8638 55.6087 46.3532 55.4188 46.6392 55.0241C46.9257 54.6295 46.9552 54.1027 46.7155 53.6776L39.2639 40.469C44.1926 35.9871 47.0001 29.6585 47.0001 22.9422C47.0001 12.1284 39.7336 2.71032 29.3295 0.0390284C28.6671 -0.131113 27.994 0.27087 27.8249 0.936604C27.6558 1.60234 28.0554 2.27967 28.7173 2.44981C38.0256 4.83964 44.5268 13.2665 44.5268 22.9422C44.5268 34.7182 35.018 44.0908 23.5003 44.0908C11.9743 44.0908 2.47366 34.7104 2.47366 22.9422C2.47366 13.2665 8.9744 4.83964 18.2828 2.44981C18.9447 2.27967 19.3443 1.60234 19.1756 0.936604C19.0066 0.27087 18.3335 -0.131113 17.6711 0.0390284V0.0390284Z" fill="#153C6A"/>
</g>
</svg>
