<?xml version="1.0" encoding="utf-8"?>
<!-- Generator: Adobe Illustrator 24.2.3, SVG Export Plug-In . SVG Version: 6.00 Build 0)  -->
<svg version="1.1" id="Capa_1" xmlns="http://www.w3.org/2000/svg" xmlns:xlink="http://www.w3.org/1999/xlink" x="0px" y="0px"
	 viewBox="0 0 37 45" style="enable-background:new 0 0 37 45;" xml:space="preserve">
<style type="text/css">
	.st0{clip-path:url(#SVGID_2_);enable-background:new    ;}
	.st1{clip-path:url(#SVGID_4_);}
	.st2{clip-path:url(#SVGID_6_);}
	.st3{clip-path:url(#SVGID_8_);fill:#021D49;}
	.st4{clip-path:url(#SVGID_10_);}
	.st5{clip-path:url(#SVGID_12_);fill:#FFFFFF;}
</style>
<g>
	<defs>
		<rect id="SVGID_1_" x="0.4" y="1" width="36" height="43"/>
	</defs>
	<clipPath id="SVGID_2_">
		<use xlink:href="#SVGID_1_"  style="overflow:visible;"/>
	</clipPath>
	<g class="st0">
		<g>
			<defs>
				<rect id="SVGID_3_" x="0.4" width="37" height="45"/>
			</defs>
			<clipPath id="SVGID_4_">
				<use xlink:href="#SVGID_3_"  style="overflow:visible;"/>
			</clipPath>
			<g class="st1">
				<defs>
					<path id="SVGID_5_" d="M18.4,1c9.9,0,18,8,18,17.9c0,6-3.2,12-8.6,17.6c-1.8,1.9-3.8,3.7-5.8,5.2c-0.7,0.5-1.3,1-1.9,1.4
						c-0.4,0.3-0.6,0.4-0.8,0.5c-0.6,0.4-1.4,0.4-2,0c-0.1-0.1-0.4-0.3-0.8-0.5c-0.6-0.4-1.2-0.9-1.9-1.4c-2-1.6-3.9-3.3-5.8-5.2
						C3.7,30.9,0.4,25,0.4,18.9C0.4,9,8.5,1,18.4,1"/>
				</defs>
				<clipPath id="SVGID_6_">
					<use xlink:href="#SVGID_5_"  style="overflow:visible;"/>
				</clipPath>
				<g class="st2">
					<defs>
						<rect id="SVGID_7_" x="0.4" y="1" width="36" height="43"/>
					</defs>
					<clipPath id="SVGID_8_">
						<use xlink:href="#SVGID_7_"  style="overflow:visible;"/>
					</clipPath>
					<rect x="-0.6" y="0" class="st3" width="38" height="45.1"/>
				</g>
			</g>
		</g>
	</g>
</g>
<g>
	<defs>
		<path id="SVGID_9_" d="M24.7,26.2L11.9,28l6.2-21c1.4,1.3,3.2,3.3,4.6,6.1C25.4,18.5,25,24,24.7,26.2"/>
	</defs>
	<clipPath id="SVGID_10_">
		<use xlink:href="#SVGID_9_"  style="overflow:visible;"/>
	</clipPath>
	<g class="st4">
		<defs>
			<rect id="SVGID_11_" x="-906.1" y="-464" width="1440" height="1683"/>
		</defs>
		<clipPath id="SVGID_12_">
			<use xlink:href="#SVGID_11_"  style="overflow:visible;"/>
		</clipPath>
		<rect x="10.9" y="6" class="st5" width="15.5" height="23"/>
	</g>
</g>
</svg>
